<?xml version="1.0" encoding="UTF-8" standalone="no"?>
<!-- Created with Inkscape (http://www.inkscape.org/) -->

<svg
   version="1.1"
   id="svg208"
   width="1325.9639"
   height="387.88715"
   viewBox="0 0 1325.9639 387.88716"
   sodipodi:docname="LOGO DATA 4 BIZ(2).ai"
   xmlns:inkscape="http://www.inkscape.org/namespaces/inkscape"
   xmlns:sodipodi="http://sodipodi.sourceforge.net/DTD/sodipodi-0.dtd"
   xmlns="http://www.w3.org/2000/svg"
   xmlns:svg="http://www.w3.org/2000/svg">
  <defs
     id="defs212">
    <clipPath
       clipPathUnits="userSpaceOnUse"
       id="clipPath1586">
      <path
         d="M 0,1000 H 1000 V 0 H 0 Z"
         id="path1584" />
    </clipPath>
  </defs>
  <sodipodi:namedview
     id="namedview210"
     pagecolor="#ffffff"
     bordercolor="#000000"
     borderopacity="0.25"
     inkscape:showpageshadow="2"
     inkscape:pageopacity="0.0"
     inkscape:pagecheckerboard="0"
     inkscape:deskcolor="#d1d1d1"
     showgrid="false" />
  <g
     id="g1576"
     inkscape:groupmode="layer"
     inkscape:label="Page 6"
     transform="matrix(1.3333333,0,0,-1.3333333,-3.6846185,860.61072)">
    <g
       id="g1580"
       transform="matrix(1.2619137,0,0,1.2619137,-130.95685,-130.95698)">
      <g
         id="g1582"
         clip-path="url(#clipPath1586)">
        <g
           id="g1588"
           transform="translate(431.8411,514.8711)">
          <path
             d="m 0,0 c -0.146,20.924 -21.704,21.722 -26.642,21.63 -0.555,-0.01 -1,-0.463 -1,-1.02 v -41.13 c 0,-0.576 0.468,-1.042 1.044,-1.042 h 1.08 c 8.542,0 16.189,2.396 19.956,6.255 C -1.923,-11.58 0,-6.285 0,0 m 20.233,-0.052 c 0,-7.745 -2.16,-15.266 -6.244,-21.752 C 10.014,-28.117 4.415,-33.165 -2.2,-36.4 c -4.267,-2.087 -7.953,-3.891 -20.008,-3.891 h -24.023 c -0.549,0 -0.995,0.445 -0.995,0.994 v 78.482 c 0,0.557 0.452,1.01 1.009,1.01 h 23.405 c 10.411,0 15.38,-1.557 19.201,-3.241 14.485,-6.381 23.844,-20.905 23.844,-37.006"
             style="fill:#ffffff;fill-opacity:1;fill-rule:nonzero;stroke:none"
             id="path1590" />
        </g>
        <g
           id="g1592"
           transform="translate(431.8411,514.8711)">
          <path
             d="m 0,0 c -0.146,20.924 -21.704,21.722 -26.642,21.63 -0.555,-0.01 -1,-0.463 -1,-1.02 v -41.13 c 0,-0.576 0.468,-1.042 1.044,-1.042 h 1.08 c 8.542,0 16.189,2.396 19.956,6.255 C -1.923,-11.58 0,-6.285 0,0 Z m 20.233,-0.052 c 0,-7.745 -2.16,-15.266 -6.244,-21.752 C 10.014,-28.117 4.415,-33.165 -2.2,-36.4 c -4.267,-2.087 -7.953,-3.891 -20.008,-3.891 h -24.023 c -0.549,0 -0.995,0.445 -0.995,0.994 v 78.482 c 0,0.557 0.452,1.01 1.009,1.01 h 23.405 c 10.411,0 15.38,-1.557 19.201,-3.241 14.485,-6.381 23.844,-20.905 23.844,-37.006 z"
             style="fill:none;stroke:#ffffff;stroke-width:0.439;stroke-linecap:butt;stroke-linejoin:miter;stroke-miterlimit:10;stroke-dasharray:none;stroke-opacity:1"
             id="path1594" />
        </g>
        <g
           id="g1596"
           transform="translate(494.0071,506.4839)">
          <path
             d="m 0,0 -6.185,18.758 c -0.308,0.933 -1.628,0.933 -1.937,0 l -6.196,-18.79 c -0.211,-0.639 0.265,-1.297 0.938,-1.297 H -0.959 C -0.271,-1.329 0.216,-0.655 0,0 M 31.3,-32.004 H 11.435 c -0.527,0 -0.992,0.336 -1.158,0.834 l -4.19,12.709 c -0.135,0.409 -0.517,0.685 -0.946,0.685 h -24.58 c -0.435,0 -0.821,-0.279 -0.957,-0.693 l -4.24,-12.855 c -0.135,-0.408 -0.513,-0.68 -0.941,-0.68 h -20.027 c -0.697,0 -1.177,0.695 -0.931,1.347 l 29.544,78.403 c 0.185,0.492 0.655,0.817 1.18,0.817 H 1.604 c 0.464,0 0.88,-0.288 1.044,-0.723 l 29.583,-78.499 c 0.245,-0.65 -0.236,-1.345 -0.931,-1.345"
             style="fill:#ffffff;fill-opacity:1;fill-rule:nonzero;stroke:none"
             id="path1598" />
        </g>
        <g
           id="g1600"
           transform="translate(572.7962,554.2656)">
          <path
             d="m 0,0 v -16.581 c 0,-0.538 -0.436,-0.972 -0.973,-0.972 h -14.306 c -0.535,0 -0.972,-0.436 -0.972,-0.972 v -59.996 c 0,-0.538 -0.436,-0.973 -0.972,-0.973 h -18.521 c -0.536,0 -0.973,0.435 -0.973,0.973 v 59.996 c 0,0.536 -0.433,0.972 -0.971,0.972 H -52.1 c -0.537,0 -0.971,0.434 -0.971,0.97 V 0 c 0,0.538 0.434,0.972 0.971,0.972 H -0.973 C -0.436,0.972 0,0.538 0,0"
             style="fill:#ffffff;fill-opacity:1;fill-rule:nonzero;stroke:none"
             id="path1602" />
        </g>
        <g
           id="g1604"
           transform="translate(612.8157,506.4839)">
          <path
             d="m 0,0 -6.186,18.758 c -0.308,0.933 -1.628,0.933 -1.937,0 l -6.196,-18.79 c -0.211,-0.639 0.265,-1.297 0.938,-1.297 H -0.96 C -0.271,-1.329 0.215,-0.655 0,0 M 31.299,-32.004 H 11.434 c -0.527,0 -0.992,0.336 -1.157,0.834 l -4.191,12.709 c -0.134,0.409 -0.517,0.685 -0.945,0.685 H -19.44 c -0.435,0 -0.821,-0.279 -0.957,-0.693 l -4.24,-12.855 c -0.134,-0.408 -0.512,-0.68 -0.941,-0.68 h -20.026 c -0.697,0 -1.178,0.695 -0.932,1.347 l 29.544,78.403 c 0.185,0.492 0.655,0.817 1.18,0.817 H 1.604 c 0.464,0 0.879,-0.288 1.043,-0.723 L 32.23,-30.659 c 0.246,-0.65 -0.236,-1.345 -0.931,-1.345"
             style="fill:#ffffff;fill-opacity:1;fill-rule:nonzero;stroke:none"
             id="path1606" />
        </g>
        <g
           id="g1608"
           transform="translate(700.7552,533.3359)">
          <path
             d="m 0,0 c 0.017,1.057 -1.431,1.376 -1.858,0.41 l -11.651,-26.219 c -0.286,-0.645 0.186,-1.366 0.887,-1.366 h 11.253 c 0.53,0 0.963,0.425 0.971,0.956 z m 23.643,-28.532 v -14.984 c 0,-0.536 -0.435,-0.972 -0.971,-0.972 h -3.593 c -0.537,0 -0.973,-0.434 -0.973,-0.97 v -11.847 c 0,-0.535 -0.433,-0.969 -0.97,-0.969 H -1.355 c -0.549,0 -0.989,0.452 -0.971,1.001 l 0.374,11.784 c 0.016,0.549 -0.423,1.003 -0.972,1.003 H -33.93 c -0.538,0 -0.972,0.434 -0.972,0.971 v 13.245 c 0,0.133 0.026,0.265 0.08,0.388 l 22.346,51.492 c 0.154,0.355 0.504,0.585 0.892,0.585 h 29.186 c 0.54,0 0.977,-0.44 0.971,-0.982 L 18.117,-26.58 c -0.005,-0.539 0.432,-0.98 0.973,-0.98 h 3.582 c 0.538,0 0.973,-0.435 0.971,-0.972 z"
             style="fill:none;stroke:#ffffff;stroke-width:1.757;stroke-linecap:butt;stroke-linejoin:miter;stroke-miterlimit:10;stroke-dasharray:none;stroke-opacity:1"
             id="path1610" />
        </g>
        <g
           id="g1612"
           transform="translate(769.2064,523.7896)">
          <path
             d="m 0,0 c 0,-0.546 0.441,-0.988 0.987,-0.988 h 6.339 c 1.258,0 3.872,0 6.028,0.872 2.833,1.097 4.332,3.3 4.332,6.371 0,2.861 -1.379,4.81 -4.084,5.787 -2.092,0.792 -4.711,0.792 -6.276,0.792 H 1.005 C 0.449,12.834 0,12.385 0,11.831 Z m 20.113,-23.442 c 0,2.962 -1.373,4.981 -4.069,5.995 -2.099,0.832 -4.722,0.832 -6.289,0.832 H 0.911 c -0.545,0 -0.987,-0.442 -0.987,-0.988 v -12.358 c 0,-0.554 0.448,-1.002 1.003,-1.002 h 8.828 c 1.259,0 3.88,0 6.042,0.913 2.824,1.142 4.318,3.426 4.316,6.608 m 19.38,-1.217 c 0,-7.079 -2.787,-13.821 -7.281,-17.603 -7.411,-6.356 -12.923,-6.955 -25.658,-6.955 h -24.861 c -0.563,0 -1.02,0.457 -1.02,1.019 v 78.37 c 0,0.549 0.445,0.992 0.992,0.992 H 9.608 c 8.4,0 15.687,-1.984 19.996,-5.446 l 0.01,-0.008 0.01,-0.007 c 4.609,-3.512 7.048,-8.961 7.048,-15.756 0,-5.601 -2.993,-11.076 -8.212,-15.026 -0.582,-0.44 -0.488,-1.34 0.171,-1.652 7.208,-3.404 10.862,-9.436 10.862,-17.928"
             style="fill:#ffffff;fill-opacity:1;fill-rule:nonzero;stroke:none"
             id="path1614" />
        </g>
        <g
           id="g1616"
           transform="translate(835.0882,554.1211)">
          <path
             d="m 0,0 v -78.366 c 0,-0.556 -0.453,-1.007 -1.009,-1.007 h -18.449 c -0.558,0 -1.009,0.451 -1.009,1.007 V 0 c 0,0.557 0.451,1.008 1.009,1.008 H -1.009 C -0.453,1.008 0,0.557 0,0"
             style="fill:#ffffff;fill-opacity:1;fill-rule:nonzero;stroke:none"
             id="path1618" />
        </g>
        <g
           id="g1620"
           transform="translate(893.9808,492.3242)">
          <path
             d="m 0,0 -1.459,-16.561 c 0,-0.535 -0.436,-0.97 -0.971,-0.97 h -50.093 c -0.704,0 -1.173,0.723 -0.889,1.366 l 5.437,12.247 0.005,0.012 0.005,0.01 19.326,46.902 c 0.264,0.639 -0.206,1.343 -0.897,1.343 h -23.139 c -0.537,0 -0.972,0.434 -0.972,0.971 l 1.459,16.559 c 0,0.537 0.436,0.972 0.972,0.972 h 50.297 c 0.675,0 1.145,-0.673 0.911,-1.307 L -5.692,46.067 -23.023,2.302 c -0.252,-0.639 0.217,-1.329 0.902,-1.329 H -0.974 C -0.436,0.973 -0.001,0.537 0,0"
             style="fill:#ffffff;fill-opacity:1;fill-rule:nonzero;stroke:none"
             id="path1622" />
        </g>
        <g
           id="g1624"
           transform="translate(391.721,438.8389)">
          <path
             d="M 0,0 V -8.077 H -1.71 V 0 l -9.451,15.384 h 1.877 l 8.479,-13.809 8.48,13.809 h 1.776 z"
             style="fill:#ffffff;fill-opacity:1;fill-rule:nonzero;stroke:none"
             id="path1626" />
        </g>
        <g
           id="g1628"
           transform="translate(423.7278,433.5098)">
          <path
             d="m 0,0 c 1.587,0.894 2.838,2.129 3.754,3.704 0.916,1.575 1.374,3.334 1.374,5.278 0,1.945 -0.458,3.705 -1.374,5.279 C 2.838,15.836 1.587,17.07 0,17.965 c -1.587,0.892 -3.363,1.341 -5.329,1.341 -1.966,0 -3.748,-0.449 -5.346,-1.341 -1.597,-0.895 -2.854,-2.129 -3.77,-3.704 -0.916,-1.574 -1.374,-3.334 -1.374,-5.279 0,-1.944 0.458,-3.703 1.374,-5.278 0.916,-1.575 2.173,-2.81 3.77,-3.704 1.598,-0.894 3.38,-1.341 5.346,-1.341 1.966,0 3.742,0.447 5.329,1.341 m -11.563,-1.357 c -1.855,1.039 -3.312,2.463 -4.374,4.273 -1.061,1.81 -1.591,3.832 -1.591,6.066 0,2.235 0.53,4.257 1.591,6.067 1.062,1.809 2.519,3.234 4.374,4.273 1.855,1.039 3.932,1.559 6.234,1.559 2.302,0 4.38,-0.515 6.234,-1.542 C 2.76,18.312 4.217,16.893 5.278,15.082 6.34,13.272 6.871,11.239 6.871,8.982 6.871,6.726 6.34,4.692 5.278,2.883 4.217,1.073 2.76,-0.346 0.905,-1.374 c -1.854,-1.028 -3.932,-1.541 -6.234,-1.541 -2.302,0 -4.379,0.519 -6.234,1.558"
             style="fill:#ffffff;fill-opacity:1;fill-rule:nonzero;stroke:none"
             id="path1630" />
        </g>
        <g
           id="g1632"
           transform="translate(442.8148,433.1748)">
          <path
             d="m 0,0 c -1.643,1.721 -2.463,4.234 -2.463,7.541 v 13.507 h 1.709 V 7.608 c 0,-2.882 0.659,-5.039 1.978,-6.468 1.318,-1.43 3.228,-2.146 5.73,-2.146 2.481,0 4.38,0.716 5.698,2.146 1.319,1.429 1.978,3.586 1.978,6.468 v 13.44 h 1.709 V 7.541 C 16.339,4.234 15.513,1.721 13.858,0 12.205,-1.721 9.893,-2.58 6.921,-2.58 3.949,-2.58 1.643,-1.721 0,0"
             style="fill:#ffffff;fill-opacity:1;fill-rule:nonzero;stroke:none"
             id="path1634" />
        </g>
        <g
           id="g1636"
           transform="translate(479.5648,439.9453)">
          <path
             d="M 0,0 C 2.502,0 4.412,0.553 5.731,1.659 7.05,2.765 7.709,4.334 7.709,6.367 7.709,8.4 7.05,9.971 5.731,11.076 4.412,12.183 2.502,12.736 0,12.736 H -6.703 V 0 Z M 7.876,-9.184 2.279,-1.341 C 1.452,-1.453 0.692,-1.509 0,-1.509 H -6.703 V -9.184 H -8.412 V 14.277 H 0 c 2.949,0 5.262,-0.698 6.937,-2.094 C 8.613,10.786 9.451,8.848 9.451,6.367 9.451,4.513 8.977,2.954 8.026,1.692 7.077,0.43 5.72,-0.459 3.955,-0.972 L 9.82,-9.184 Z"
             style="fill:#ffffff;fill-opacity:1;fill-rule:nonzero;stroke:none"
             id="path1638" />
        </g>
        <g
           id="g1640"
           transform="translate(521.0901,432.3037)">
          <path
             d="m 0,0 c 2.167,0 4.077,0.43 5.73,1.29 1.654,0.86 2.927,2.062 3.822,3.604 0.893,1.541 1.341,3.305 1.341,5.294 0,1.989 -0.448,3.754 -1.341,5.296 C 8.657,17.025 7.384,18.227 5.73,19.087 4.077,19.947 2.167,20.378 0,20.378 H -7.44 V 0 Z m -9.15,21.919 h 9.284 c 2.434,0 4.596,-0.503 6.485,-1.508 1.888,-1.006 3.357,-2.396 4.407,-4.173 1.05,-1.776 1.576,-3.793 1.576,-6.05 0,-2.256 -0.526,-4.273 -1.576,-6.048 C 9.976,2.362 8.507,0.972 6.619,-0.033 4.73,-1.039 2.568,-1.542 0.134,-1.542 H -9.15 Z"
             style="fill:#ffffff;fill-opacity:1;fill-rule:nonzero;stroke:none"
             id="path1642" />
        </g>
        <g
           id="g1644"
           transform="translate(557.1849,438.8057)">
          <path
             d="M 0,0 -6.166,13.54 -12.3,0 Z M 0.638,-1.441 H -12.97 l -2.982,-6.603 h -1.844 l 10.792,23.461 h 1.709 L 5.497,-8.044 H 3.653 Z"
             style="fill:#ffffff;fill-opacity:1;fill-rule:nonzero;stroke:none"
             id="path1646" />
        </g>
        <g
           id="g1648"
           transform="translate(574.2786,452.6816)">
          <path
             d="M 0,0 H -8.446 V 1.541 H 10.155 V 0 H 1.709 V -21.92 H 0 Z"
             style="fill:#ffffff;fill-opacity:1;fill-rule:nonzero;stroke:none"
             id="path1650" />
        </g>
        <g
           id="g1652"
           transform="translate(607.0218,452.6816)">
          <path
             d="m 0,0 v -10.021 h 12.502 v -1.542 H 0 V -21.92 H -1.709 V 1.541 H 13.977 V 0 Z"
             style="fill:#ffffff;fill-opacity:1;fill-rule:nonzero;stroke:none"
             id="path1654" />
        </g>
        <g
           id="g1656"
           transform="translate(645.4651,433.5098)">
          <path
             d="m 0,0 c 1.586,0.894 2.837,2.129 3.754,3.704 0.915,1.575 1.373,3.334 1.373,5.278 0,1.945 -0.458,3.705 -1.373,5.279 C 2.837,15.836 1.586,17.07 0,17.965 c -1.587,0.892 -3.363,1.341 -5.329,1.341 -1.967,0 -3.748,-0.449 -5.346,-1.341 -1.597,-0.895 -2.854,-2.129 -3.77,-3.704 -0.917,-1.574 -1.374,-3.334 -1.374,-5.279 0,-1.944 0.457,-3.703 1.374,-5.278 0.916,-1.575 2.173,-2.81 3.77,-3.704 1.598,-0.894 3.379,-1.341 5.346,-1.341 1.966,0 3.742,0.447 5.329,1.341 m -11.563,-1.357 c -1.855,1.039 -3.313,2.463 -4.374,4.273 -1.061,1.81 -1.592,3.832 -1.592,6.066 0,2.235 0.531,4.257 1.592,6.067 1.061,1.809 2.519,3.234 4.374,4.273 1.854,1.039 3.932,1.559 6.234,1.559 2.301,0 4.379,-0.515 6.233,-1.542 C 2.759,18.312 4.217,16.893 5.278,15.082 6.34,13.272 6.87,11.239 6.87,8.982 6.87,6.726 6.34,4.692 5.278,2.883 4.217,1.073 2.759,-0.346 0.904,-1.374 -0.95,-2.402 -3.028,-2.915 -5.329,-2.915 c -2.302,0 -4.38,0.519 -6.234,1.558"
             style="fill:#ffffff;fill-opacity:1;fill-rule:nonzero;stroke:none"
             id="path1658" />
        </g>
        <g
           id="g1660"
           transform="translate(670.7025,439.9453)">
          <path
             d="M 0,0 C 2.502,0 4.412,0.553 5.73,1.659 7.049,2.765 7.708,4.334 7.708,6.367 7.708,8.4 7.049,9.971 5.73,11.076 4.412,12.183 2.502,12.736 0,12.736 H -6.704 V 0 Z M 7.876,-9.184 2.278,-1.341 C 1.452,-1.453 0.691,-1.509 0,-1.509 H -6.704 V -9.184 H -8.413 V 14.277 H 0 c 2.949,0 5.261,-0.698 6.937,-2.094 C 8.613,10.786 9.451,8.848 9.451,6.367 9.451,4.513 8.976,2.954 8.026,1.692 7.076,0.43 5.72,-0.459 3.954,-0.972 l 5.865,-8.212 z"
             style="fill:#ffffff;fill-opacity:1;fill-rule:nonzero;stroke:none"
             id="path1662" />
        </g>
        <g
           id="g1664"
           transform="translate(710.3167,438.8389)">
          <path
             d="M 0,0 V -8.077 H -1.71 V 0 l -9.451,15.384 h 1.877 l 8.479,-13.809 8.48,13.809 h 1.776 z"
             style="fill:#ffffff;fill-opacity:1;fill-rule:nonzero;stroke:none"
             id="path1666" />
        </g>
        <g
           id="g1668"
           transform="translate(742.3235,433.5098)">
          <path
             d="m 0,0 c 1.587,0.894 2.838,2.129 3.754,3.704 0.916,1.575 1.374,3.334 1.374,5.278 0,1.945 -0.458,3.705 -1.374,5.279 C 2.838,15.836 1.587,17.07 0,17.965 c -1.587,0.892 -3.363,1.341 -5.329,1.341 -1.966,0 -3.748,-0.449 -5.346,-1.341 -1.597,-0.895 -2.854,-2.129 -3.77,-3.704 -0.916,-1.574 -1.374,-3.334 -1.374,-5.279 0,-1.944 0.458,-3.703 1.374,-5.278 0.916,-1.575 2.173,-2.81 3.77,-3.704 1.598,-0.894 3.38,-1.341 5.346,-1.341 1.966,0 3.742,0.447 5.329,1.341 m -11.563,-1.357 c -1.854,1.039 -3.312,2.463 -4.374,4.273 -1.061,1.81 -1.591,3.832 -1.591,6.066 0,2.235 0.53,4.257 1.591,6.067 1.062,1.809 2.52,3.234 4.374,4.273 1.855,1.039 3.932,1.559 6.234,1.559 2.302,0 4.38,-0.515 6.234,-1.542 C 2.76,18.312 4.218,16.893 5.279,15.082 6.34,13.272 6.871,11.239 6.871,8.982 6.871,6.726 6.34,4.692 5.279,2.883 4.218,1.073 2.76,-0.346 0.905,-1.374 c -1.854,-1.028 -3.932,-1.541 -6.234,-1.541 -2.302,0 -4.379,0.519 -6.234,1.558"
             style="fill:#ffffff;fill-opacity:1;fill-rule:nonzero;stroke:none"
             id="path1670" />
        </g>
        <g
           id="g1672"
           transform="translate(761.4105,433.1748)">
          <path
             d="m 0,0 c -1.643,1.721 -2.463,4.234 -2.463,7.541 v 13.507 h 1.709 V 7.608 c 0,-2.882 0.659,-5.039 1.978,-6.468 1.318,-1.43 3.228,-2.146 5.73,-2.146 2.481,0 4.38,0.716 5.698,2.146 1.319,1.429 1.978,3.586 1.978,6.468 v 13.44 h 1.709 V 7.541 C 16.339,4.234 15.513,1.721 13.858,0 12.205,-1.721 9.893,-2.58 6.921,-2.58 3.949,-2.58 1.643,-1.721 0,0"
             style="fill:#ffffff;fill-opacity:1;fill-rule:nonzero;stroke:none"
             id="path1674" />
        </g>
        <g
           id="g1676"
           transform="translate(798.1605,439.9453)">
          <path
             d="M 0,0 C 2.502,0 4.412,0.553 5.731,1.659 7.05,2.765 7.709,4.334 7.709,6.367 7.709,8.4 7.05,9.971 5.731,11.076 4.412,12.183 2.502,12.736 0,12.736 H -6.703 V 0 Z M 7.876,-9.184 2.279,-1.341 C 1.452,-1.453 0.692,-1.509 0,-1.509 H -6.703 V -9.184 H -8.412 V 14.277 H 0 c 2.949,0 5.262,-0.698 6.937,-2.094 C 8.613,10.786 9.451,8.848 9.451,6.367 9.451,4.513 8.977,2.954 8.027,1.692 7.077,0.43 5.72,-0.459 3.955,-0.972 L 9.82,-9.184 Z"
             style="fill:#ffffff;fill-opacity:1;fill-rule:nonzero;stroke:none"
             id="path1678" />
        </g>
        <g
           id="g1680"
           transform="translate(846.1702,433.4268)">
          <path
             d="M 0,0 C 1.173,0.792 1.76,2.016 1.76,3.67 1.76,5.322 1.173,6.54 0,7.322 -1.173,8.104 -2.899,8.496 -5.178,8.496 h -8.748 V -1.19 h 8.748 c 2.279,0 4.005,0.396 5.178,1.19 m -13.926,19.321 v -9.35 h 8.01 c 2.056,0 3.637,0.396 4.743,1.189 1.107,0.793 1.659,1.961 1.659,3.503 0,1.519 -0.552,2.675 -1.659,3.469 -1.106,0.792 -2.687,1.189 -4.743,1.189 z M 2.146,7.457 C 3.027,6.451 3.469,5.145 3.469,3.535 3.469,1.547 2.742,0.017 1.29,-1.057 -0.162,-2.129 -2.318,-2.665 -5.178,-2.665 h -10.457 v 23.461 h 9.786 c 2.548,0 4.531,-0.52 5.95,-1.559 1.419,-1.039 2.128,-2.519 2.128,-4.44 0,-1.341 -0.352,-2.47 -1.056,-3.385 C 0.47,10.495 -0.485,9.836 -1.692,9.434 -0.017,9.121 1.263,8.462 2.146,7.457"
             style="fill:#ffffff;fill-opacity:1;fill-rule:nonzero;stroke:none"
             id="path1682" />
        </g>
        <path
           d="m 859.761,454.223 h 1.709 v -23.461 h -1.709 z"
           style="fill:#ffffff;fill-opacity:1;fill-rule:nonzero;stroke:none"
           id="path1684" />
        <g
           id="g1686"
           transform="translate(890.0589,432.3037)">
          <path
             d="m 0,0 v -1.542 h -18.902 v 1.206 l 16.187,20.714 h -15.986 v 1.541 H -0.368 V 20.713 L -16.523,0 Z"
             style="fill:#ffffff;fill-opacity:1;fill-rule:nonzero;stroke:none"
             id="path1688" />
        </g>
        <g
           id="g1690"
           transform="translate(271.3401,605.4829)">
          <path
             d="m 0,0 c -5.402,7.828 -15.187,11.458 -24.387,9.049 l -40.571,-10.624 16.893,-8.494 c 2.688,-1.352 5.8,-1.657 8.7,-0.852 z"
             style="fill:#ffffff;fill-opacity:1;fill-rule:nonzero;stroke:none"
             id="path1692" />
        </g>
        <g
           id="g1694"
           transform="translate(191.5862,527.3467)">
          <path
             d="m 0,0 c -5.975,2.883 -11.441,3.594 -15.731,1.077 -5.966,-3.501 -10.765,-8.808 -13.777,-15.144 l -32.112,-67.579 7.537,-13.9 33.225,64.422 c 4.812,9.333 13.101,16.48 23.039,19.869 l 11.845,4.038 z"
             style="fill:#ffffff;fill-opacity:1;fill-rule:nonzero;stroke:none"
             id="path1696" />
        </g>
        <g
           id="g1698"
           transform="translate(296.8812,568.4736)">
          <path
             d="m 0,0 -65.832,-21.27 c -2.856,-0.923 -5.977,-0.711 -8.683,0.589 l -34.014,16.349 c -2.714,1.304 -5.83,1.561 -8.722,0.719 l -7.835,-2.284 c -13.043,-3.801 -23.707,-13.408 -28.846,-25.983 l -5.149,-12.604 c -1.06,-2.593 -3.654,-4.247 -6.452,-4.113 l -14.788,0.709 c -2.77,0.133 -5.309,-1.582 -6.221,-4.201 l -2.562,-7.362 c -3.017,-8.674 -2.238,-18.278 2.14,-26.351 l 7.965,20.901 c 0.995,2.613 3.556,4.315 6.352,4.221 l 16.487,-0.553 c 2.823,-0.094 5.436,1.545 6.58,4.128 l 6.44,14.543 c 4.208,9.503 12.379,16.763 22.313,19.824 l 7.82,2.409 39.637,-18.485 c 2.72,-1.268 5.843,-1.436 8.682,-0.468 l 74.312,25.336 z"
             style="fill:#ffffff;fill-opacity:1;fill-rule:nonzero;stroke:none"
             id="path1700" />
        </g>
        <g
           id="g1702"
           transform="translate(115.5218,531.2788)">
          <path
             d="m 0,0 8.036,-0.333 c 2.79,-0.115 5.356,1.576 6.35,4.185 l 7.418,19.467 c 3.663,9.612 11.731,16.959 21.642,19.709 l 22.375,6.208 c 2.908,0.806 6.025,0.54 8.753,-0.748 l 33.843,-15.973 c 2.72,-1.285 5.84,-1.507 8.715,-0.62 l 55.981,17.248 -9.312,13.494 -45.903,-13.379 c -2.89,-0.842 -6.006,-0.581 -8.717,0.729 l -32.594,15.76 c -2.718,1.314 -5.832,1.617 -8.752,0.853 L 39.543,59.19 C 26.545,55.787 16.025,46.064 11.61,33.374 Z"
             style="fill:#ffffff;fill-opacity:1;fill-rule:nonzero;stroke:none"
             id="path1704" />
        </g>
        <g
           id="g1706"
           transform="translate(131.5443,497.0049)">
          <path
             d="m 0,0 c -2.799,0.131 -5.393,-1.525 -6.452,-4.12 l -8.901,-21.782 7.31,-13.482 17.25,38.956 z"
             style="fill:#ffffff;fill-opacity:1;fill-rule:nonzero;stroke:none"
             id="path1708" />
        </g>
        <g
           id="g1710"
           transform="translate(334.4935,513.9717)">
          <path
             d="m 0,0 -0.71,1.029 -24.905,-9.8 c -2.706,-1.066 -4.69,-3.462 -5.23,-6.321 l -3.184,-16.852 28.025,11.607 C 2.023,-17.013 4.935,-7.151 0,0"
             style="fill:#ffffff;fill-opacity:1;fill-rule:nonzero;stroke:none"
             id="path1712" />
        </g>
        <g
           id="g1714"
           transform="translate(315.0267,542.1797)">
          <path
             d="m 0,0 -35.744,-12.761 c -2.733,-0.976 -4.771,-3.324 -5.351,-6.166 l -6.128,-29.994 c -0.583,-2.856 -2.586,-5.239 -5.298,-6.306 l -40.708,-16.019 c -10.476,-4.123 -19.446,-11.445 -25.582,-20.884 l -4.713,-7.251 c -1.636,-2.515 -2.24,-5.584 -1.68,-8.532 l 3.618,-19.052 13.122,18.486 c 6.194,8.727 14.757,15.552 24.645,19.648 l 48.326,20.014 c 2.69,1.114 4.642,3.537 5.158,6.404 l 5.513,30.622 c 0.513,2.853 2.503,5.241 5.215,6.262 l 29.553,11.117 z"
             style="fill:#ffffff;fill-opacity:1;fill-rule:nonzero;stroke:none"
             id="path1716" />
        </g>
        <g
           id="g1718"
           transform="translate(144.1683,419.5107)">
          <path
             d="m 0,0 7.769,-14.327 3.23,5.356 c 1.56,2.586 2.152,5.658 1.669,8.638 l -2.913,17.93 z"
             style="fill:#ffffff;fill-opacity:1;fill-rule:nonzero;stroke:none"
             id="path1720" />
        </g>
        <g
           id="g1722"
           transform="translate(188.3177,465.502)">
          <path
             d="m 0,0 c 5.477,9.081 13.895,16.084 23.82,19.818 l 37.339,14.047 c 2.719,1.023 4.727,3.398 5.283,6.248 L 69.604,56.29 16.565,37.354 C 4.928,33.198 -4.851,24.9 -10.842,14.092 l -13.446,-24.256 c -1.468,-2.647 -1.983,-5.732 -1.458,-8.712 l 5.895,-33.395 c 0.523,-2.958 -0.101,-6.023 -1.739,-8.542 l -7.918,-12.181 c 3.694,-6.811 13.247,-7.373 17.714,-1.043 l 5.788,8.202 c 1.725,2.444 2.402,5.497 1.875,8.44 l -6.158,34.352 c -0.532,2.968 0.036,6.044 1.593,8.625 z"
             style="fill:#ffffff;fill-opacity:1;fill-rule:nonzero;stroke:none"
             id="path1724" />
        </g>
        <g
           id="g1726"
           transform="translate(237.7249,421.8379)">
          <path
             d="m 0,0 c 2.2,2.179 4.781,3.942 7.611,5.2 l 17.65,7.843 -3.415,2.145 c -2.474,1.555 -5.58,1.778 -8.25,0.592 L 5.9,12.364 C 3.068,11.106 0.476,9.359 -1.753,7.208 l -19.728,-19.041 c -2.23,-2.152 -4.818,-3.907 -7.643,-5.182 l -7.773,-3.506 -10.889,-4.913 -8.918,-11.671 30.713,13.841 c 2.822,1.274 5.404,3.039 7.613,5.209 z"
             style="fill:#ffffff;fill-opacity:1;fill-rule:nonzero;stroke:none"
             id="path1728" />
        </g>
        <g
           id="g1730"
           transform="translate(224.1556,425.5566)">
          <path
             d="m 0,0 -18.074,-8.024 -9.279,-12.144 9.626,4.289 c 2.826,1.259 5.385,3.056 7.53,5.284 z"
             style="fill:#ffffff;fill-opacity:1;fill-rule:nonzero;stroke:none"
             id="path1732" />
        </g>
        <g
           id="g1734"
           transform="translate(228.9808,406.3477)">
          <path
             d="M 0,0 43.26,19.497 C 53.402,24.069 62.551,30.63 70.133,38.772 L 71.002,39.706 20.761,17.038 C 17.933,15.763 15.322,14.042 13.035,11.945 Z"
             style="fill:#ffffff;fill-opacity:1;fill-rule:nonzero;stroke:none"
             id="path1736" />
        </g>
        <g
           id="g1738"
           transform="translate(311.9329,464.5303)">
          <path
             d="m 0,0 -33.421,-14.84 c -2.662,-1.181 -5.762,-0.921 -8.188,0.688 l -5.725,3.796 c -2.432,1.613 -5.532,1.9 -8.22,0.761 l -19.343,-8.196 c -9.981,-4.23 -18.581,-11.243 -24.73,-20.171 l 41.496,18.147 c 2.683,1.171 5.79,0.953 8.281,-0.583 l 5.098,-3.145 c 2.489,-1.536 5.597,-1.743 8.268,-0.554 l 25.082,11.177 c 2.789,1.243 5.166,3.277 6.825,5.842 z"
             style="fill:#ffffff;fill-opacity:1;fill-rule:nonzero;stroke:none"
             id="path1740" />
        </g>
        <g
           id="g1742"
           transform="translate(324.3587,483.7402)">
          <path
             d="m 0,0 -55.014,-23.312 3.975,-2.805 c 2.369,-1.673 5.463,-1.987 8.121,-0.824 l 31.253,13.666 c 2.796,1.222 5.181,3.249 6.838,5.812 z"
             style="fill:#ffffff;fill-opacity:1;fill-rule:nonzero;stroke:none"
             id="path1744" />
        </g>
      </g>
    </g>
  </g>
</svg>
