<?xml version="1.0" encoding="UTF-8" standalone="no"?>
<!-- Created with Inkscape (http://www.inkscape.org/) -->

<svg
   version="1.1"
   id="svg208"
   width="1333.3333"
   height="1333.3333"
   viewBox="0 0 1333.3333 1333.3333"
   sodipodi:docname="LOGO DATA 4 BIZ(2).ai"
   xmlns:inkscape="http://www.inkscape.org/namespaces/inkscape"
   xmlns:sodipodi="http://sodipodi.sourceforge.net/DTD/sodipodi-0.dtd"
   xmlns="http://www.w3.org/2000/svg"
   xmlns:svg="http://www.w3.org/2000/svg">
  <defs
     id="defs212">
    <clipPath
       clipPathUnits="userSpaceOnUse"
       id="clipPath628">
      <path
         d="m 246.953,610.414 -40.57,-10.623 16.892,-8.494 c 2.689,-1.352 5.801,-1.658 8.7,-0.853 v 0 l 39.364,10.922 c -4.289,6.215 -11.343,9.784 -18.672,9.784 v 0 c -1.901,0 -3.82,-0.24 -5.714,-0.736"
         id="path626" />
    </clipPath>
    <linearGradient
       x1="0"
       y1="0"
       x2="1"
       y2="0"
       gradientUnits="userSpaceOnUse"
       gradientTransform="matrix(39.147167,28.38179,28.38179,-39.147167,136.51076,526.37366)"
       spreadMethod="pad"
       id="linearGradient638">
      <stop
         style="stop-opacity:1;stop-color:#d56062"
         offset="0"
         id="stop634" />
      <stop
         style="stop-opacity:1;stop-color:#f27849"
         offset="1"
         id="stop636" />
    </linearGradient>
    <clipPath
       clipPathUnits="userSpaceOnUse"
       id="clipPath648">
      <path
         d="m 175.855,524.306 c -5.966,-3.501 -10.764,-8.809 -13.776,-15.145 v 0 l -32.113,-67.578 7.538,-13.899 33.224,64.422 c 4.812,9.333 13.101,16.479 23.039,19.868 v 0 l 11.846,4.038 -14.027,7.217 c -3.474,1.676 -6.777,2.618 -9.776,2.618 v 0 c -2.159,10e-4 -4.16,-0.488 -5.955,-1.541"
         id="path646" />
    </clipPath>
    <linearGradient
       x1="0"
       y1="0"
       x2="1"
       y2="0"
       gradientUnits="userSpaceOnUse"
       gradientTransform="matrix(39.147034,28.381693,28.381693,-39.147034,167.35461,483.83109)"
       spreadMethod="pad"
       id="linearGradient660">
      <stop
         style="stop-opacity:1;stop-color:#d56062"
         offset="0"
         id="stop654" />
      <stop
         style="stop-opacity:1;stop-color:#d56062"
         offset="0.0044663"
         id="stop656" />
      <stop
         style="stop-opacity:1;stop-color:#f27849"
         offset="1"
         id="stop658" />
    </linearGradient>
    <clipPath
       clipPathUnits="userSpaceOnUse"
       id="clipPath670">
      <path
         d="m 231.049,543.087 c -2.856,-0.924 -5.976,-0.712 -8.682,0.589 v 0 l -34.015,16.348 c -2.713,1.304 -5.831,1.562 -8.722,0.719 v 0 l -7.834,-2.283 c -13.043,-3.802 -23.707,-13.408 -28.846,-25.984 v 0 l -5.149,-12.604 c -1.061,-2.593 -3.655,-4.247 -6.452,-4.113 v 0 l -14.79,0.71 c -2.769,0.133 -5.308,-1.584 -6.22,-4.202 v 0 l -2.561,-7.362 c -3.018,-8.674 -2.239,-18.277 2.14,-26.351 v 0 l 7.965,20.901 c 0.994,2.614 3.555,4.316 6.35,4.221 v 0 l 16.488,-0.553 c 2.824,-0.094 5.436,1.545 6.58,4.128 v 0 l 6.44,14.543 c 4.208,9.503 12.38,16.763 22.313,19.823 v 0 l 7.82,2.41 39.637,-18.485 c 2.72,-1.268 5.842,-1.436 8.682,-0.468 v 0 l 74.313,25.335 -9.626,13.948 z"
         id="path668" />
    </clipPath>
    <linearGradient
       x1="0"
       y1="0"
       x2="1"
       y2="0"
       gradientUnits="userSpaceOnUse"
       gradientTransform="matrix(39.146957,28.381638,28.381638,-39.146957,157.7749,497.04465)"
       spreadMethod="pad"
       id="linearGradient682">
      <stop
         style="stop-opacity:1;stop-color:#d56062"
         offset="0"
         id="stop676" />
      <stop
         style="stop-opacity:1;stop-color:#d56062"
         offset="0.00013622"
         id="stop678" />
      <stop
         style="stop-opacity:1;stop-color:#f27849"
         offset="1"
         id="stop680" />
    </linearGradient>
    <clipPath
       clipPathUnits="userSpaceOnUse"
       id="clipPath692">
      <path
         d="m 183.357,593.761 -28.292,-7.409 c -12.998,-3.404 -23.518,-13.127 -27.933,-25.817 v 0 l -11.611,-33.374 8.036,-0.333 c 2.791,-0.115 5.355,1.576 6.351,4.185 v 0 l 7.418,19.467 c 3.663,9.612 11.73,16.96 21.643,19.71 v 0 l 22.375,6.208 c 2.907,0.805 6.023,0.54 8.751,-0.748 v 0 l 33.843,-15.973 c 2.721,-1.286 5.841,-1.507 8.715,-0.621 v 0 l 55.982,17.247 -9.312,13.495 -45.904,-13.378 c -2.889,-0.842 -6.005,-0.582 -8.716,0.729 v 0 l -32.595,15.758 c -1.734,0.84 -3.632,1.267 -5.536,1.267 v 0 c -1.079,0 -2.159,-0.137 -3.215,-0.413"
         id="path690" />
    </clipPath>
    <linearGradient
       x1="0"
       y1="0"
       x2="1"
       y2="0"
       gradientUnits="userSpaceOnUse"
       gradientTransform="matrix(39.147133,28.381765,28.381765,-39.147133,138.99329,522.94983)"
       spreadMethod="pad"
       id="linearGradient702">
      <stop
         style="stop-opacity:1;stop-color:#d56062"
         offset="0"
         id="stop698" />
      <stop
         style="stop-opacity:1;stop-color:#f27849"
         offset="1"
         id="stop700" />
    </linearGradient>
    <clipPath
       clipPathUnits="userSpaceOnUse"
       id="clipPath712">
      <path
         d="m 125.091,488.767 -8.899,-21.781 7.31,-13.482 17.25,38.956 -9.207,0.428 c -0.103,0.004 -0.206,0.007 -0.309,0.007 v 0 c -2.68,0 -5.123,-1.629 -6.145,-4.128"
         id="path710" />
    </clipPath>
    <linearGradient
       x1="0"
       y1="0"
       x2="1"
       y2="0"
       gradientUnits="userSpaceOnUse"
       gradientTransform="matrix(39.146812,28.381533,28.381533,-39.146812,158.26042,496.37442)"
       spreadMethod="pad"
       id="linearGradient722">
      <stop
         style="stop-opacity:1;stop-color:#d56062"
         offset="0"
         id="stop718" />
      <stop
         style="stop-opacity:1;stop-color:#f27849"
         offset="1"
         id="stop720" />
    </linearGradient>
    <clipPath
       clipPathUnits="userSpaceOnUse"
       id="clipPath732">
      <path
         d="m 308.878,501.082 c -2.706,-1.065 -4.69,-3.461 -5.23,-6.32 v 0 l -3.185,-16.852 28.027,11.606 c 8.027,3.326 10.939,13.187 6.004,20.338 v 0 l -0.71,1.029 z"
         id="path730" />
    </clipPath>
    <linearGradient
       x1="0"
       y1="0"
       x2="1"
       y2="0"
       gradientUnits="userSpaceOnUse"
       gradientTransform="matrix(39.147137,28.381767,28.381767,-39.147137,214.07605,419.38879)"
       spreadMethod="pad"
       id="linearGradient744">
      <stop
         style="stop-opacity:1;stop-color:#d56062"
         offset="0"
         id="stop738" />
      <stop
         style="stop-opacity:1;stop-color:#d56062"
         offset="0.00295997"
         id="stop740" />
      <stop
         style="stop-opacity:1;stop-color:#f27849"
         offset="1"
         id="stop742" />
    </linearGradient>
    <clipPath
       clipPathUnits="userSpaceOnUse"
       id="clipPath754">
      <path
         d="m 279.283,525.301 c -2.733,-0.975 -4.77,-3.324 -5.351,-6.166 v 0 l -6.129,-29.993 c -0.582,-2.857 -2.585,-5.24 -5.296,-6.307 v 0 l -40.709,-16.019 c -10.477,-4.122 -19.446,-11.445 -25.583,-20.883 v 0 l -4.712,-7.251 c -1.636,-2.516 -2.239,-5.585 -1.68,-8.532 v 0 l 3.618,-19.052 13.122,18.485 c 6.193,8.727 14.756,15.552 24.643,19.647 v 0 l 48.327,20.014 c 2.692,1.114 4.644,3.539 5.159,6.404 v 0 l 5.513,30.624 c 0.512,2.852 2.503,5.24 5.215,6.261 v 0 l 29.553,11.118 -9.946,14.411 z"
         id="path752" />
    </clipPath>
    <linearGradient
       x1="0"
       y1="0"
       x2="1"
       y2="0"
       gradientUnits="userSpaceOnUse"
       gradientTransform="matrix(39.147072,28.38172,28.38172,-39.147072,199.54408,439.43198)"
       spreadMethod="pad"
       id="linearGradient764">
      <stop
         style="stop-opacity:1;stop-color:#d56062"
         offset="0"
         id="stop760" />
      <stop
         style="stop-opacity:1;stop-color:#f27849"
         offset="1"
         id="stop762" />
    </linearGradient>
    <clipPath
       clipPathUnits="userSpaceOnUse"
       id="clipPath774">
      <path
         d="m 144.167,415.393 7.769,-14.327 3.23,5.357 c 1.56,2.585 2.154,5.656 1.67,8.637 v 0 l -2.913,17.93 z"
         id="path772" />
    </clipPath>
    <linearGradient
       x1="0"
       y1="0"
       x2="1"
       y2="0"
       gradientUnits="userSpaceOnUse"
       gradientTransform="matrix(39.14724,28.381842,28.381842,-39.14724,194.13077,446.89899)"
       spreadMethod="pad"
       id="linearGradient784">
      <stop
         style="stop-opacity:1;stop-color:#d56062"
         offset="0"
         id="stop780" />
      <stop
         style="stop-opacity:1;stop-color:#f27849"
         offset="1"
         id="stop782" />
    </linearGradient>
    <clipPath
       clipPathUnits="userSpaceOnUse"
       id="clipPath794">
      <path
         d="m 204.883,498.739 c -11.639,-4.156 -21.415,-12.454 -27.407,-23.263 v 0 L 164.029,451.22 c -1.467,-2.646 -1.983,-5.732 -1.457,-8.712 v 0 l 5.895,-33.395 c 0.523,-2.957 -0.101,-6.022 -1.738,-8.542 v 0 l -7.92,-12.18 c 3.695,-6.812 13.248,-7.373 17.715,-1.044 v 0 l 5.788,8.203 c 1.724,2.444 2.402,5.496 1.875,8.44 v 0 l -6.159,34.351 c -0.532,2.969 0.036,6.044 1.594,8.626 v 0 l 8.696,14.418 c 5.476,9.081 13.895,16.084 23.819,19.818 v 0 l 37.339,14.046 c 2.719,1.024 4.728,3.399 5.284,6.249 v 0 l 3.161,16.177 z"
         id="path792" />
    </clipPath>
    <linearGradient
       x1="0"
       y1="0"
       x2="1"
       y2="0"
       gradientUnits="userSpaceOnUse"
       gradientTransform="matrix(39.14711,28.381746,28.381746,-39.14711,194.35178,446.59363)"
       spreadMethod="pad"
       id="linearGradient804">
      <stop
         style="stop-opacity:1;stop-color:#d56062"
         offset="0"
         id="stop800" />
      <stop
         style="stop-opacity:1;stop-color:#f27849"
         offset="1"
         id="stop802" />
    </linearGradient>
    <clipPath
       clipPathUnits="userSpaceOnUse"
       id="clipPath814">
      <path
         d="m 251.32,433.5 -7.694,-3.416 c -2.833,-1.257 -5.425,-3.004 -7.655,-5.155 v 0 l -19.728,-19.042 c -2.228,-2.151 -4.818,-3.907 -7.643,-5.181 v 0 l -7.773,-3.507 -10.889,-4.911 -8.917,-11.673 30.712,13.842 c 2.823,1.272 5.405,3.038 7.614,5.209 v 0 l 18.378,18.055 c 2.2,2.179 4.782,3.942 7.611,5.199 v 0 l 17.65,7.842 -3.415,2.147 c -1.42,0.892 -3.049,1.346 -4.684,1.346 v 0 c -1.213,0 -2.43,-0.25 -3.567,-0.755"
         id="path812" />
    </clipPath>
    <linearGradient
       x1="0"
       y1="0"
       x2="1"
       y2="0"
       gradientUnits="userSpaceOnUse"
       gradientTransform="matrix(81.965698,0,0,-81.965698,181.02042,407.43488)"
       spreadMethod="pad"
       id="linearGradient824">
      <stop
         style="stop-opacity:1;stop-color:#f27849"
         offset="0"
         id="stop820" />
      <stop
         style="stop-opacity:1;stop-color:#d56062"
         offset="1"
         id="stop822" />
    </linearGradient>
    <clipPath
       clipPathUnits="userSpaceOnUse"
       id="clipPath834">
      <path
         d="m 206.082,413.415 -9.279,-12.145 9.626,4.291 c 2.826,1.258 5.384,3.055 7.53,5.284 v 0 l 10.196,10.594 z"
         id="path832" />
    </clipPath>
    <linearGradient
       x1="0"
       y1="0"
       x2="1"
       y2="0"
       gradientUnits="userSpaceOnUse"
       gradientTransform="matrix(27.351929,0,0,-27.351929,196.80338,411.35519)"
       spreadMethod="pad"
       id="linearGradient846">
      <stop
         style="stop-opacity:1;stop-color:#f27849"
         offset="0"
         id="stop840" />
      <stop
         style="stop-opacity:1;stop-color:#f27849"
         offset="0.028285"
         id="stop842" />
      <stop
         style="stop-opacity:1;stop-color:#d56062"
         offset="1"
         id="stop844" />
    </linearGradient>
    <clipPath
       clipPathUnits="userSpaceOnUse"
       id="clipPath856">
      <path
         d="m 249.742,419.269 c -2.828,-1.277 -5.439,-2.997 -7.726,-5.094 v 0 l -13.035,-11.944 43.259,19.496 c 10.143,4.571 19.292,11.133 26.874,19.276 v 0 l 0.868,0.932 z"
         id="path854" />
    </clipPath>
    <linearGradient
       x1="0"
       y1="0"
       x2="1"
       y2="0"
       gradientUnits="userSpaceOnUse"
       gradientTransform="matrix(71.001122,0,0,-71.001122,228.98117,422.08319)"
       spreadMethod="pad"
       id="linearGradient868">
      <stop
         style="stop-opacity:1;stop-color:#f27849"
         offset="0"
         id="stop862" />
      <stop
         style="stop-opacity:1;stop-color:#f27849"
         offset="0.00655675"
         id="stop864" />
      <stop
         style="stop-opacity:1;stop-color:#d56062"
         offset="1"
         id="stop866" />
    </linearGradient>
    <clipPath
       clipPathUnits="userSpaceOnUse"
       id="clipPath878">
      <path
         d="m 278.511,445.572 c -2.661,-1.182 -5.762,-0.921 -8.187,0.688 v 0 l -5.725,3.797 c -2.433,1.612 -5.532,1.9 -8.22,0.76 v 0 l -19.343,-8.196 c -9.98,-4.228 -18.582,-11.243 -24.73,-20.17 v 0 l 41.497,18.146 c 2.681,1.173 5.789,0.953 8.281,-0.583 v 0 l 5.097,-3.145 c 2.489,-1.535 5.597,-1.743 8.268,-0.553 v 0 l 25.082,11.177 c 2.789,1.243 5.166,3.277 6.825,5.841 v 0 l 4.578,7.079 z"
         id="path876" />
    </clipPath>
    <linearGradient
       x1="0"
       y1="0"
       x2="1"
       y2="0"
       gradientUnits="userSpaceOnUse"
       gradientTransform="matrix(99.62722,0,0,-99.62722,212.30611,441.43213)"
       spreadMethod="pad"
       id="linearGradient888">
      <stop
         style="stop-opacity:1;stop-color:#f27849"
         offset="0"
         id="stop884" />
      <stop
         style="stop-opacity:1;stop-color:#d56062"
         offset="1"
         id="stop886" />
    </linearGradient>
    <clipPath
       clipPathUnits="userSpaceOnUse"
       id="clipPath898">
      <path
         d="m 269.345,456.312 3.974,-2.807 c 2.37,-1.672 5.463,-1.986 8.121,-0.823 v 0 l 31.254,13.666 c 2.796,1.223 5.181,3.249 6.837,5.811 v 0 l 4.828,7.463 z"
         id="path896" />
    </clipPath>
    <linearGradient
       x1="0"
       y1="0"
       x2="1"
       y2="0"
       gradientUnits="userSpaceOnUse"
       gradientTransform="matrix(55.013988,0,0,-55.013988,269.34476,465.80511)"
       spreadMethod="pad"
       id="linearGradient908">
      <stop
         style="stop-opacity:1;stop-color:#f27849"
         offset="0"
         id="stop904" />
      <stop
         style="stop-opacity:1;stop-color:#d56062"
         offset="1"
         id="stop906" />
    </linearGradient>
    <clipPath
       clipPathUnits="userSpaceOnUse"
       id="clipPath918">
      <path
         d="M 0,1000 H 1000 V 0 H 0 Z"
         id="path916" />
    </clipPath>
  </defs>
  <sodipodi:namedview
     id="namedview210"
     pagecolor="#ffffff"
     bordercolor="#000000"
     borderopacity="0.25"
     inkscape:showpageshadow="2"
     inkscape:pageopacity="0.0"
     inkscape:pagecheckerboard="0"
     inkscape:deskcolor="#d1d1d1"
     showgrid="false" />
  <g
     id="g620"
     inkscape:groupmode="layer"
     inkscape:label="Page 2"
     transform="matrix(1.3333333,0,0,-1.3333333,9.6814452e-5,1333.3333)">
    <g
       id="g622"
       transform="matrix(1.2340899,0,0,1.2340899,-116.14609,-116.08108)">
      <g
         id="g624"
         clip-path="url(#clipPath628)">
        <g
           id="g630">
          <g
             id="g632">
            <path
               d="m 246.953,610.414 -40.57,-10.623 16.892,-8.494 c 2.689,-1.352 5.801,-1.658 8.7,-0.853 v 0 l 39.364,10.922 c -4.289,6.215 -11.343,9.784 -18.672,9.784 v 0 c -1.901,0 -3.82,-0.24 -5.714,-0.736"
               style="fill:url(#linearGradient638);stroke:none"
               id="path640" />
          </g>
        </g>
      </g>
    </g>
    <g
       id="g642"
       transform="matrix(1.2340899,0,0,1.2340899,-116.14609,-116.08108)">
      <g
         id="g644"
         clip-path="url(#clipPath648)">
        <g
           id="g650">
          <g
             id="g652">
            <path
               d="m 175.855,524.306 c -5.966,-3.501 -10.764,-8.809 -13.776,-15.145 v 0 l -32.113,-67.578 7.538,-13.899 33.224,64.422 c 4.812,9.333 13.101,16.479 23.039,19.868 v 0 l 11.846,4.038 -14.027,7.217 c -3.474,1.676 -6.777,2.618 -9.776,2.618 v 0 c -2.159,10e-4 -4.16,-0.488 -5.955,-1.541"
               style="fill:url(#linearGradient660);stroke:none"
               id="path662" />
          </g>
        </g>
      </g>
    </g>
    <g
       id="g664"
       transform="matrix(1.2340899,0,0,1.2340899,-116.14609,-116.08108)">
      <g
         id="g666"
         clip-path="url(#clipPath670)">
        <g
           id="g672">
          <g
             id="g674">
            <path
               d="m 231.049,543.087 c -2.856,-0.924 -5.976,-0.712 -8.682,0.589 v 0 l -34.015,16.348 c -2.713,1.304 -5.831,1.562 -8.722,0.719 v 0 l -7.834,-2.283 c -13.043,-3.802 -23.707,-13.408 -28.846,-25.984 v 0 l -5.149,-12.604 c -1.061,-2.593 -3.655,-4.247 -6.452,-4.113 v 0 l -14.79,0.71 c -2.769,0.133 -5.308,-1.584 -6.22,-4.202 v 0 l -2.561,-7.362 c -3.018,-8.674 -2.239,-18.277 2.14,-26.351 v 0 l 7.965,20.901 c 0.994,2.614 3.555,4.316 6.35,4.221 v 0 l 16.488,-0.553 c 2.824,-0.094 5.436,1.545 6.58,4.128 v 0 l 6.44,14.543 c 4.208,9.503 12.38,16.763 22.313,19.823 v 0 l 7.82,2.41 39.637,-18.485 c 2.72,-1.268 5.842,-1.436 8.682,-0.468 v 0 l 74.313,25.335 -9.626,13.948 z"
               style="fill:url(#linearGradient682);stroke:none"
               id="path684" />
          </g>
        </g>
      </g>
    </g>
    <g
       id="g686"
       transform="matrix(1.2340899,0,0,1.2340899,-116.14609,-116.08108)">
      <g
         id="g688"
         clip-path="url(#clipPath692)">
        <g
           id="g694">
          <g
             id="g696">
            <path
               d="m 183.357,593.761 -28.292,-7.409 c -12.998,-3.404 -23.518,-13.127 -27.933,-25.817 v 0 l -11.611,-33.374 8.036,-0.333 c 2.791,-0.115 5.355,1.576 6.351,4.185 v 0 l 7.418,19.467 c 3.663,9.612 11.73,16.96 21.643,19.71 v 0 l 22.375,6.208 c 2.907,0.805 6.023,0.54 8.751,-0.748 v 0 l 33.843,-15.973 c 2.721,-1.286 5.841,-1.507 8.715,-0.621 v 0 l 55.982,17.247 -9.312,13.495 -45.904,-13.378 c -2.889,-0.842 -6.005,-0.582 -8.716,0.729 v 0 l -32.595,15.758 c -1.734,0.84 -3.632,1.267 -5.536,1.267 v 0 c -1.079,0 -2.159,-0.137 -3.215,-0.413"
               style="fill:url(#linearGradient702);stroke:none"
               id="path704" />
          </g>
        </g>
      </g>
    </g>
    <g
       id="g706"
       transform="matrix(1.2340899,0,0,1.2340899,-116.14609,-116.08108)">
      <g
         id="g708"
         clip-path="url(#clipPath712)">
        <g
           id="g714">
          <g
             id="g716">
            <path
               d="m 125.091,488.767 -8.899,-21.781 7.31,-13.482 17.25,38.956 -9.207,0.428 c -0.103,0.004 -0.206,0.007 -0.309,0.007 v 0 c -2.68,0 -5.123,-1.629 -6.145,-4.128"
               style="fill:url(#linearGradient722);stroke:none"
               id="path724" />
          </g>
        </g>
      </g>
    </g>
    <g
       id="g726"
       transform="matrix(1.2340899,0,0,1.2340899,-116.14609,-116.08108)">
      <g
         id="g728"
         clip-path="url(#clipPath732)">
        <g
           id="g734">
          <g
             id="g736">
            <path
               d="m 308.878,501.082 c -2.706,-1.065 -4.69,-3.461 -5.23,-6.32 v 0 l -3.185,-16.852 28.027,11.606 c 8.027,3.326 10.939,13.187 6.004,20.338 v 0 l -0.71,1.029 z"
               style="fill:url(#linearGradient744);stroke:none"
               id="path746" />
          </g>
        </g>
      </g>
    </g>
    <g
       id="g748"
       transform="matrix(1.2340899,0,0,1.2340899,-116.14609,-116.08108)">
      <g
         id="g750"
         clip-path="url(#clipPath754)">
        <g
           id="g756">
          <g
             id="g758">
            <path
               d="m 279.283,525.301 c -2.733,-0.975 -4.77,-3.324 -5.351,-6.166 v 0 l -6.129,-29.993 c -0.582,-2.857 -2.585,-5.24 -5.296,-6.307 v 0 l -40.709,-16.019 c -10.477,-4.122 -19.446,-11.445 -25.583,-20.883 v 0 l -4.712,-7.251 c -1.636,-2.516 -2.239,-5.585 -1.68,-8.532 v 0 l 3.618,-19.052 13.122,18.485 c 6.193,8.727 14.756,15.552 24.643,19.647 v 0 l 48.327,20.014 c 2.692,1.114 4.644,3.539 5.159,6.404 v 0 l 5.513,30.624 c 0.512,2.852 2.503,5.24 5.215,6.261 v 0 l 29.553,11.118 -9.946,14.411 z"
               style="fill:url(#linearGradient764);stroke:none"
               id="path766" />
          </g>
        </g>
      </g>
    </g>
    <g
       id="g768"
       transform="matrix(1.2340899,0,0,1.2340899,-116.14609,-116.08108)">
      <g
         id="g770"
         clip-path="url(#clipPath774)">
        <g
           id="g776">
          <g
             id="g778">
            <path
               d="m 144.167,415.393 7.769,-14.327 3.23,5.357 c 1.56,2.585 2.154,5.656 1.67,8.637 v 0 l -2.913,17.93 z"
               style="fill:url(#linearGradient784);stroke:none"
               id="path786" />
          </g>
        </g>
      </g>
    </g>
    <g
       id="g788"
       transform="matrix(1.2340899,0,0,1.2340899,-116.14609,-116.08108)">
      <g
         id="g790"
         clip-path="url(#clipPath794)">
        <g
           id="g796">
          <g
             id="g798">
            <path
               d="m 204.883,498.739 c -11.639,-4.156 -21.415,-12.454 -27.407,-23.263 v 0 L 164.029,451.22 c -1.467,-2.646 -1.983,-5.732 -1.457,-8.712 v 0 l 5.895,-33.395 c 0.523,-2.957 -0.101,-6.022 -1.738,-8.542 v 0 l -7.92,-12.18 c 3.695,-6.812 13.248,-7.373 17.715,-1.044 v 0 l 5.788,8.203 c 1.724,2.444 2.402,5.496 1.875,8.44 v 0 l -6.159,34.351 c -0.532,2.969 0.036,6.044 1.594,8.626 v 0 l 8.696,14.418 c 5.476,9.081 13.895,16.084 23.819,19.818 v 0 l 37.339,14.046 c 2.719,1.024 4.728,3.399 5.284,6.249 v 0 l 3.161,16.177 z"
               style="fill:url(#linearGradient804);stroke:none"
               id="path806" />
          </g>
        </g>
      </g>
    </g>
    <g
       id="g808"
       transform="matrix(1.2340899,0,0,1.2340899,-116.14609,-116.08108)">
      <g
         id="g810"
         clip-path="url(#clipPath814)">
        <g
           id="g816">
          <g
             id="g818">
            <path
               d="m 251.32,433.5 -7.694,-3.416 c -2.833,-1.257 -5.425,-3.004 -7.655,-5.155 v 0 l -19.728,-19.042 c -2.228,-2.151 -4.818,-3.907 -7.643,-5.181 v 0 l -7.773,-3.507 -10.889,-4.911 -8.917,-11.673 30.712,13.842 c 2.823,1.272 5.405,3.038 7.614,5.209 v 0 l 18.378,18.055 c 2.2,2.179 4.782,3.942 7.611,5.199 v 0 l 17.65,7.842 -3.415,2.147 c -1.42,0.892 -3.049,1.346 -4.684,1.346 v 0 c -1.213,0 -2.43,-0.25 -3.567,-0.755"
               style="fill:url(#linearGradient824);stroke:none"
               id="path826" />
          </g>
        </g>
      </g>
    </g>
    <g
       id="g828"
       transform="matrix(1.2340899,0,0,1.2340899,-116.14609,-116.08108)">
      <g
         id="g830"
         clip-path="url(#clipPath834)">
        <g
           id="g836">
          <g
             id="g838">
            <path
               d="m 206.082,413.415 -9.279,-12.145 9.626,4.291 c 2.826,1.258 5.384,3.055 7.53,5.284 v 0 l 10.196,10.594 z"
               style="fill:url(#linearGradient846);stroke:none"
               id="path848" />
          </g>
        </g>
      </g>
    </g>
    <g
       id="g850"
       transform="matrix(1.2340899,0,0,1.2340899,-116.14609,-116.08108)">
      <g
         id="g852"
         clip-path="url(#clipPath856)">
        <g
           id="g858">
          <g
             id="g860">
            <path
               d="m 249.742,419.269 c -2.828,-1.277 -5.439,-2.997 -7.726,-5.094 v 0 l -13.035,-11.944 43.259,19.496 c 10.143,4.571 19.292,11.133 26.874,19.276 v 0 l 0.868,0.932 z"
               style="fill:url(#linearGradient868);stroke:none"
               id="path870" />
          </g>
        </g>
      </g>
    </g>
    <g
       id="g872"
       transform="matrix(1.2340899,0,0,1.2340899,-116.14609,-116.08108)">
      <g
         id="g874"
         clip-path="url(#clipPath878)">
        <g
           id="g880">
          <g
             id="g882">
            <path
               d="m 278.511,445.572 c -2.661,-1.182 -5.762,-0.921 -8.187,0.688 v 0 l -5.725,3.797 c -2.433,1.612 -5.532,1.9 -8.22,0.76 v 0 l -19.343,-8.196 c -9.98,-4.228 -18.582,-11.243 -24.73,-20.17 v 0 l 41.497,18.146 c 2.681,1.173 5.789,0.953 8.281,-0.583 v 0 l 5.097,-3.145 c 2.489,-1.535 5.597,-1.743 8.268,-0.553 v 0 l 25.082,11.177 c 2.789,1.243 5.166,3.277 6.825,5.841 v 0 l 4.578,7.079 z"
               style="fill:url(#linearGradient888);stroke:none"
               id="path890" />
          </g>
        </g>
      </g>
    </g>
    <g
       id="g892"
       transform="matrix(1.2340899,0,0,1.2340899,-116.14609,-116.08108)">
      <g
         id="g894"
         clip-path="url(#clipPath898)">
        <g
           id="g900">
          <g
             id="g902">
            <path
               d="m 269.345,456.312 3.974,-2.807 c 2.37,-1.672 5.463,-1.986 8.121,-0.823 v 0 l 31.254,13.666 c 2.796,1.223 5.181,3.249 6.837,5.811 v 0 l 4.828,7.463 z"
               style="fill:url(#linearGradient908);stroke:none"
               id="path910" />
          </g>
        </g>
      </g>
    </g>
    <g
       id="g912"
       transform="matrix(1.2340899,0,0,1.2340899,-116.14609,-116.08108)">
      <g
         id="g914"
         clip-path="url(#clipPath918)">
        <g
           id="g920"
           transform="translate(424.1618,517.6309)">
          <path
             d="m 0,0 c -0.146,20.924 -21.704,21.722 -26.642,21.63 -0.555,-0.01 -1,-0.463 -1,-1.02 v -41.13 c 0,-0.576 0.468,-1.042 1.044,-1.042 h 1.08 c 8.542,0 16.189,2.396 19.956,6.255 C -1.923,-11.58 0,-6.285 0,0 m 20.233,-0.052 c 0,-7.745 -2.16,-15.266 -6.244,-21.753 C 10.014,-28.117 4.415,-33.166 -2.2,-36.4 c -4.268,-2.087 -7.953,-3.891 -20.008,-3.891 h -24.023 c -0.549,0 -0.995,0.445 -0.995,0.994 v 78.481 c 0,0.558 0.452,1.01 1.009,1.01 h 23.405 c 10.411,0 15.38,-1.556 19.201,-3.24 14.485,-6.381 23.844,-20.906 23.844,-37.006"
             style="fill:#f27849;fill-opacity:1;fill-rule:nonzero;stroke:none"
             id="path922" />
        </g>
        <g
           id="g924"
           transform="translate(486.3278,509.2437)">
          <path
             d="m 0,0 -6.185,18.758 c -0.309,0.933 -1.628,0.933 -1.938,0 l -6.195,-18.79 c -0.211,-0.639 0.265,-1.297 0.937,-1.297 H -0.959 C -0.271,-1.329 0.216,-0.655 0,0 M 31.3,-32.005 H 11.434 c -0.526,0 -0.991,0.337 -1.157,0.835 l -4.19,12.709 c -0.135,0.409 -0.517,0.685 -0.946,0.685 h -24.58 c -0.435,0 -0.821,-0.279 -0.957,-0.693 l -4.241,-12.855 c -0.134,-0.408 -0.512,-0.681 -0.94,-0.681 h -20.027 c -0.697,0 -1.177,0.696 -0.931,1.348 l 29.543,78.403 c 0.186,0.492 0.656,0.817 1.181,0.817 H 1.604 c 0.464,0 0.88,-0.288 1.044,-0.723 l 29.583,-78.499 c 0.245,-0.65 -0.236,-1.346 -0.931,-1.346"
             style="fill:#f27849;fill-opacity:1;fill-rule:nonzero;stroke:none"
             id="path926" />
        </g>
        <g
           id="g928"
           transform="translate(565.1158,557.0254)">
          <path
             d="m 0,0 v -16.581 c 0,-0.538 -0.435,-0.973 -0.972,-0.973 h -14.307 c -0.534,0 -0.971,-0.435 -0.971,-0.972 v -59.995 c 0,-0.538 -0.436,-0.973 -0.972,-0.973 h -18.521 c -0.536,0 -0.973,0.435 -0.973,0.973 v 59.995 c 0,0.536 -0.433,0.972 -0.972,0.972 h -14.411 c -0.537,0 -0.971,0.435 -0.971,0.971 V 0 c 0,0.537 0.434,0.972 0.971,0.972 H -0.972 C -0.435,0.972 0,0.537 0,0"
             style="fill:#f27849;fill-opacity:1;fill-rule:nonzero;stroke:none"
             id="path930" />
        </g>
        <g
           id="g932"
           transform="translate(605.1354,509.2437)">
          <path
             d="m 0,0 -6.185,18.758 c -0.308,0.933 -1.628,0.933 -1.937,0 l -6.196,-18.79 c -0.211,-0.639 0.265,-1.297 0.938,-1.297 H -0.959 C -0.271,-1.329 0.216,-0.655 0,0 M 31.3,-32.005 H 11.435 c -0.527,0 -0.992,0.337 -1.157,0.835 l -4.191,12.709 c -0.135,0.409 -0.517,0.685 -0.946,0.685 h -24.58 c -0.435,0 -0.821,-0.279 -0.957,-0.693 l -4.24,-12.855 c -0.135,-0.408 -0.513,-0.681 -0.941,-0.681 h -20.027 c -0.696,0 -1.177,0.696 -0.931,1.348 l 29.544,78.403 c 0.185,0.492 0.655,0.817 1.18,0.817 H 1.604 c 0.465,0 0.88,-0.288 1.044,-0.723 l 29.583,-78.499 c 0.246,-0.65 -0.236,-1.346 -0.931,-1.346"
             style="fill:#f27849;fill-opacity:1;fill-rule:nonzero;stroke:none"
             id="path934" />
        </g>
        <g
           id="g936"
           transform="translate(693.0758,536.0957)">
          <path
             d="m 0,0 c 0.017,1.057 -1.431,1.376 -1.858,0.41 l -11.651,-26.22 c -0.286,-0.644 0.186,-1.366 0.887,-1.366 h 11.253 c 0.53,0 0.963,0.426 0.971,0.957 z m 23.643,-28.533 v -14.983 c 0,-0.536 -0.435,-0.972 -0.971,-0.972 h -3.593 c -0.537,0 -0.973,-0.434 -0.973,-0.97 v -11.847 c 0,-0.535 -0.433,-0.97 -0.97,-0.97 H -1.355 c -0.549,0 -0.989,0.453 -0.971,1.001 l 0.373,11.785 c 0.017,0.549 -0.422,1.003 -0.971,1.003 H -33.93 c -0.538,0 -0.972,0.434 -0.972,0.971 v 13.244 c 0,0.134 0.026,0.266 0.08,0.389 l 22.346,51.492 c 0.154,0.355 0.504,0.585 0.892,0.585 h 29.186 c 0.54,0 0.977,-0.44 0.971,-0.982 L 18.117,-26.58 c -0.005,-0.54 0.432,-0.98 0.973,-0.98 h 3.582 c 0.538,0 0.973,-0.435 0.971,-0.973 z"
             style="fill:none;stroke:#f27849;stroke-width:1.757;stroke-linecap:butt;stroke-linejoin:miter;stroke-miterlimit:10;stroke-dasharray:none;stroke-opacity:1"
             id="path938" />
        </g>
        <g
           id="g940"
           transform="translate(761.527,526.5493)">
          <path
             d="m 0,0 c 0,-0.546 0.441,-0.988 0.987,-0.988 h 6.339 c 1.257,0 3.872,0 6.028,0.872 2.833,1.097 4.332,3.299 4.332,6.371 0,2.861 -1.379,4.81 -4.084,5.787 -2.092,0.792 -4.711,0.792 -6.276,0.792 H 1.005 C 0.449,12.834 0,12.385 0,11.831 Z m 20.113,-23.442 c 0,2.962 -1.373,4.981 -4.069,5.995 -2.099,0.831 -4.722,0.831 -6.289,0.831 H 0.91 c -0.544,0 -0.987,-0.442 -0.987,-0.987 v -12.358 c 0,-0.554 0.449,-1.003 1.004,-1.003 h 8.828 c 1.259,0 3.88,0 6.042,0.914 2.824,1.142 4.317,3.426 4.316,6.608 m 19.38,-1.217 c 0,-7.079 -2.787,-13.822 -7.281,-17.603 -7.411,-6.357 -12.923,-6.955 -25.658,-6.955 h -24.861 c -0.563,0 -1.02,0.456 -1.02,1.018 v 78.371 c 0,0.548 0.445,0.992 0.992,0.992 H 9.608 c 8.4,0 15.687,-1.984 19.996,-5.446 l 0.009,-0.009 0.011,-0.006 c 4.609,-3.512 7.048,-8.961 7.048,-15.756 0,-5.601 -2.993,-11.077 -8.212,-15.026 -0.582,-0.44 -0.489,-1.34 0.171,-1.653 7.207,-3.403 10.862,-9.435 10.862,-17.927"
             style="fill:#f27849;fill-opacity:1;fill-rule:nonzero;stroke:none"
             id="path942" />
        </g>
        <g
           id="g944"
           transform="translate(827.4088,556.8804)">
          <path
             d="m 0,0 v -78.366 c 0,-0.555 -0.453,-1.007 -1.009,-1.007 h -18.449 c -0.558,0 -1.009,0.452 -1.009,1.007 V 0 c 0,0.557 0.451,1.008 1.009,1.008 H -1.009 C -0.453,1.008 0,0.557 0,0"
             style="fill:#f27849;fill-opacity:1;fill-rule:nonzero;stroke:none"
             id="path946" />
        </g>
        <g
           id="g948"
           transform="translate(886.3014,495.084)">
          <path
             d="m 0,0 -1.459,-16.561 c 0,-0.535 -0.436,-0.971 -0.971,-0.971 h -50.093 c -0.704,0 -1.173,0.724 -0.889,1.367 l 5.436,12.247 0.006,0.012 0.005,0.01 19.326,46.902 c 0.264,0.639 -0.206,1.343 -0.898,1.343 h -23.138 c -0.538,0 -0.972,0.434 -0.972,0.971 l 1.459,16.559 c 0,0.536 0.436,0.972 0.972,0.972 h 50.297 c 0.675,0 1.144,-0.673 0.911,-1.307 L -5.692,46.067 -23.023,2.302 c -0.252,-0.639 0.217,-1.33 0.902,-1.33 H -0.974 C -0.436,0.972 -0.001,0.537 0,0"
             style="fill:#f27849;fill-opacity:1;fill-rule:nonzero;stroke:none"
             id="path950" />
        </g>
        <g
           id="g952"
           transform="translate(387.5436,441.6338)">
          <path
             d="M 0,0 V -7.993 H -1.625 V 0 l -8.982,15.224 h 1.783 L -0.765,1.56 7.294,15.224 h 1.689 z"
             style="fill:#f27849;fill-opacity:1;fill-rule:nonzero;stroke:none"
             id="path954" />
        </g>
        <g
           id="g956"
           transform="translate(417.9645,436.3604)">
          <path
             d="m 0,0 c 1.507,0.885 2.697,2.106 3.567,3.666 0.871,1.559 1.306,3.3 1.306,5.224 0,1.923 -0.435,3.664 -1.306,5.223 -0.87,1.559 -2.06,2.781 -3.567,3.664 -1.508,0.885 -3.196,1.328 -5.064,1.328 -1.87,0 -3.564,-0.443 -5.082,-1.328 -1.518,-0.883 -2.713,-2.105 -3.583,-3.664 -0.872,-1.559 -1.307,-3.3 -1.307,-5.223 0,-1.924 0.435,-3.665 1.307,-5.224 0.87,-1.56 2.065,-2.781 3.583,-3.666 1.518,-0.884 3.212,-1.326 5.082,-1.326 1.868,0 3.556,0.442 5.064,1.326 m -10.99,-1.344 c -1.763,1.03 -3.149,2.439 -4.157,4.231 -1.009,1.791 -1.513,3.791 -1.513,6.003 0,2.211 0.504,4.213 1.513,6.002 1.008,1.792 2.394,3.201 4.157,4.23 1.762,1.027 3.738,1.542 5.926,1.542 2.186,0 4.162,-0.51 5.924,-1.526 C 2.622,18.121 4.008,16.717 5.017,14.926 6.025,13.134 6.53,11.122 6.53,8.89 6.53,6.656 6.025,4.645 5.017,2.853 4.008,1.062 2.622,-0.343 0.86,-1.359 c -1.762,-1.017 -3.738,-1.527 -5.924,-1.527 -2.188,0 -4.164,0.515 -5.926,1.542"
             style="fill:#f27849;fill-opacity:1;fill-rule:nonzero;stroke:none"
             id="path958" />
        </g>
        <g
           id="g960"
           transform="translate(436.1061,436.0283)">
          <path
             d="m 0,0 c -1.562,1.703 -2.342,4.191 -2.342,7.464 v 13.365 h 1.625 v -13.3 c 0,-2.851 0.626,-4.986 1.88,-6.401 1.252,-1.414 3.067,-2.122 5.446,-2.122 2.358,0 4.163,0.708 5.415,2.122 1.254,1.415 1.881,3.55 1.881,6.401 v 13.3 h 1.624 V 7.464 C 15.529,4.191 14.743,1.703 13.172,0 11.601,-1.703 9.402,-2.554 6.578,-2.554 3.754,-2.554 1.562,-1.703 0,0"
             style="fill:#f27849;fill-opacity:1;fill-rule:nonzero;stroke:none"
             id="path962" />
        </g>
        <g
           id="g964"
           transform="translate(471.0338,442.7285)">
          <path
             d="M 0,0 C 2.379,0 4.194,0.548 5.448,1.643 6.7,2.737 7.327,4.29 7.327,6.303 7.327,8.315 6.7,9.867 5.448,10.962 4.194,12.057 2.379,12.604 0,12.604 H -6.37 V 0 Z M 7.486,-9.088 2.167,-1.326 C 1.38,-1.437 0.658,-1.492 0,-1.492 H -6.37 V -9.088 H -7.995 V 14.129 H 0 c 2.804,0 5.001,-0.691 6.595,-2.072 C 8.188,10.674 8.983,8.757 8.983,6.303 8.983,4.467 8.532,2.925 7.63,1.675 6.727,0.427 5.437,-0.452 3.759,-0.962 l 5.575,-8.126 z"
             style="fill:#f27849;fill-opacity:1;fill-rule:nonzero;stroke:none"
             id="path966" />
        </g>
        <g
           id="g968"
           transform="translate(510.5016,435.167)">
          <path
             d="m 0,0 c 2.061,0 3.876,0.425 5.447,1.277 1.572,0.851 2.782,2.038 3.632,3.565 0.849,1.526 1.274,3.273 1.274,5.241 0,1.967 -0.425,3.714 -1.274,5.24 -0.85,1.527 -2.06,2.714 -3.632,3.565 C 3.876,19.74 2.061,20.165 0,20.165 H -7.071 V 0 Z m -8.696,21.69 h 8.824 c 2.314,0 4.369,-0.496 6.164,-1.492 1.794,-0.993 3.19,-2.371 4.188,-4.129 0.998,-1.757 1.498,-3.754 1.498,-5.986 0,-2.233 -0.5,-4.229 -1.498,-5.987 C 9.482,2.338 8.086,0.962 6.292,-0.033 4.497,-1.029 2.442,-1.526 0.128,-1.526 h -8.824 z"
             style="fill:#f27849;fill-opacity:1;fill-rule:nonzero;stroke:none"
             id="path970" />
        </g>
        <g
           id="g972"
           transform="translate(544.8102,441.6006)">
          <path
             d="M 0,0 -5.862,13.4 -11.691,0 Z m 0.604,-1.426 h -12.933 l -2.834,-6.534 h -1.752 l 10.256,23.217 h 1.626 L 5.224,-7.96 H 3.471 Z"
             style="fill:#f27849;fill-opacity:1;fill-rule:nonzero;stroke:none"
             id="path974" />
        </g>
        <g
           id="g976"
           transform="translate(561.0543,455.332)">
          <path
             d="M 0,0 H -8.027 V 1.525 H 9.652 V 0 H 1.625 V -21.691 H 0 Z"
             style="fill:#f27849;fill-opacity:1;fill-rule:nonzero;stroke:none"
             id="path978" />
        </g>
        <g
           id="g980"
           transform="translate(590.6168,441.6006)">
          <path
             d="M 0,0 -5.862,13.4 -11.691,0 Z m 0.604,-1.426 h -12.933 l -2.834,-6.534 h -1.752 l 10.256,23.217 h 1.626 L 5.224,-7.96 H 3.471 Z"
             style="fill:#f27849;fill-opacity:1;fill-rule:nonzero;stroke:none"
             id="path982" />
        </g>
        <g
           id="g984"
           transform="translate(617.3424,455.332)">
          <path
             d="m 0,0 v -9.917 h 11.882 v -1.524 H 0 v -10.25 H -1.626 V 1.525 H 13.282 V 0 Z"
             style="fill:#f27849;fill-opacity:1;fill-rule:nonzero;stroke:none"
             id="path986" />
        </g>
        <g
           id="g988"
           transform="translate(653.8795,436.3604)">
          <path
             d="m 0,0 c 1.507,0.885 2.696,2.106 3.567,3.666 0.871,1.559 1.306,3.3 1.306,5.224 0,1.923 -0.435,3.664 -1.306,5.223 -0.871,1.559 -2.06,2.781 -3.567,3.664 -1.509,0.885 -3.196,1.328 -5.064,1.328 -1.87,0 -3.564,-0.443 -5.082,-1.328 -1.519,-0.883 -2.713,-2.105 -3.584,-3.664 -0.871,-1.559 -1.306,-3.3 -1.306,-5.223 0,-1.924 0.435,-3.665 1.306,-5.224 0.871,-1.56 2.065,-2.781 3.584,-3.666 1.518,-0.884 3.212,-1.326 5.082,-1.326 1.868,0 3.555,0.442 5.064,1.326 m -10.99,-1.344 c -1.764,1.03 -3.15,2.439 -4.157,4.231 -1.009,1.791 -1.513,3.791 -1.513,6.003 0,2.211 0.504,4.213 1.513,6.002 1.007,1.792 2.393,3.201 4.157,4.23 1.762,1.027 3.738,1.542 5.926,1.542 2.186,0 4.161,-0.51 5.923,-1.526 C 2.622,18.121 4.008,16.717 5.017,14.926 6.025,13.134 6.53,11.122 6.53,8.89 6.53,6.656 6.025,4.645 5.017,2.853 4.008,1.062 2.622,-0.343 0.859,-1.359 c -1.762,-1.017 -3.737,-1.527 -5.923,-1.527 -2.188,0 -4.164,0.515 -5.926,1.542"
             style="fill:#f27849;fill-opacity:1;fill-rule:nonzero;stroke:none"
             id="path990" />
        </g>
        <g
           id="g992"
           transform="translate(677.8658,442.7285)">
          <path
             d="M 0,0 C 2.379,0 4.194,0.548 5.448,1.643 6.7,2.737 7.327,4.29 7.327,6.303 7.327,8.315 6.7,9.867 5.448,10.962 4.194,12.057 2.379,12.604 0,12.604 H -6.37 V 0 Z M 7.485,-9.088 2.167,-1.326 C 1.38,-1.437 0.658,-1.492 0,-1.492 H -6.37 V -9.088 H -7.996 V 14.129 H 0 c 2.804,0 5.001,-0.691 6.594,-2.072 C 8.188,10.674 8.983,8.757 8.983,6.303 8.983,4.467 8.532,2.925 7.629,1.675 6.727,0.427 5.437,-0.452 3.759,-0.962 l 5.575,-8.126 z"
             style="fill:#f27849;fill-opacity:1;fill-rule:nonzero;stroke:none"
             id="path994" />
        </g>
        <g
           id="g996"
           transform="translate(715.5172,441.6338)">
          <path
             d="M 0,0 V -7.993 H -1.624 V 0 l -8.983,15.224 h 1.783 L -0.765,1.56 7.295,15.224 h 1.688 z"
             style="fill:#f27849;fill-opacity:1;fill-rule:nonzero;stroke:none"
             id="path998" />
        </g>
        <g
           id="g1000"
           transform="translate(745.9391,436.3604)">
          <path
             d="m 0,0 c 1.508,0.885 2.697,2.106 3.567,3.666 0.872,1.559 1.307,3.3 1.307,5.224 0,1.923 -0.435,3.664 -1.307,5.223 -0.87,1.559 -2.059,2.781 -3.567,3.664 -1.508,0.885 -3.196,1.328 -5.064,1.328 -1.87,0 -3.564,-0.443 -5.082,-1.328 -1.518,-0.883 -2.713,-2.105 -3.583,-3.664 -0.871,-1.559 -1.306,-3.3 -1.306,-5.223 0,-1.924 0.435,-3.665 1.306,-5.224 0.87,-1.56 2.065,-2.781 3.583,-3.666 1.518,-0.884 3.212,-1.326 5.082,-1.326 1.868,0 3.556,0.442 5.064,1.326 m -10.99,-1.344 c -1.763,1.03 -3.149,2.439 -4.156,4.231 -1.009,1.791 -1.514,3.791 -1.514,6.003 0,2.211 0.505,4.213 1.514,6.002 1.007,1.792 2.393,3.201 4.156,4.23 1.763,1.027 3.738,1.542 5.926,1.542 2.186,0 4.162,-0.51 5.924,-1.526 C 2.623,18.121 4.009,16.717 5.018,14.926 6.026,13.134 6.53,11.122 6.53,8.89 6.53,6.656 6.026,4.645 5.018,2.853 4.009,1.062 2.623,-0.343 0.86,-1.359 c -1.762,-1.017 -3.738,-1.527 -5.924,-1.527 -2.188,0 -4.163,0.515 -5.926,1.542"
             style="fill:#f27849;fill-opacity:1;fill-rule:nonzero;stroke:none"
             id="path1002" />
        </g>
        <g
           id="g1004"
           transform="translate(764.0807,436.0283)">
          <path
             d="m 0,0 c -1.562,1.703 -2.342,4.191 -2.342,7.464 v 13.365 h 1.625 v -13.3 c 0,-2.851 0.626,-4.986 1.879,-6.401 1.253,-1.414 3.068,-2.122 5.447,-2.122 2.358,0 4.162,0.708 5.415,2.122 1.253,1.415 1.88,3.55 1.88,6.401 v 13.3 h 1.625 V 7.464 C 15.529,4.191 14.742,1.703 13.172,0 11.6,-1.703 9.402,-2.554 6.577,-2.554 3.753,-2.554 1.561,-1.703 0,0"
             style="fill:#f27849;fill-opacity:1;fill-rule:nonzero;stroke:none"
             id="path1006" />
        </g>
        <g
           id="g1008"
           transform="translate(799.0094,442.7285)">
          <path
             d="M 0,0 C 2.378,0 4.194,0.548 5.447,1.643 6.7,2.737 7.326,4.29 7.326,6.303 7.326,8.315 6.7,9.867 5.447,10.962 4.194,12.057 2.378,12.604 0,12.604 H -6.371 V 0 Z M 7.485,-9.088 2.166,-1.326 C 1.38,-1.437 0.658,-1.492 0,-1.492 H -6.371 V -9.088 H -7.996 V 14.129 H 0 c 2.803,0 5.001,-0.691 6.594,-2.072 C 8.187,10.674 8.982,8.757 8.982,6.303 8.982,4.467 8.531,2.925 7.629,1.675 6.727,0.427 5.437,-0.452 3.759,-0.962 l 5.574,-8.126 z"
             style="fill:#f27849;fill-opacity:1;fill-rule:nonzero;stroke:none"
             id="path1010" />
        </g>
        <g
           id="g1012"
           transform="translate(844.6403,436.2773)">
          <path
             d="M 0,0 C 1.115,0.785 1.672,1.995 1.672,3.633 1.672,5.269 1.115,6.473 0,7.247 -1.115,8.021 -2.756,8.409 -4.922,8.409 h -8.313 v -9.587 h 8.313 C -2.756,-1.178 -1.115,-0.785 0,0 M -13.235,19.122 V 9.868 h 7.613 c 1.953,0 3.456,0.393 4.507,1.178 1.052,0.785 1.577,1.939 1.577,3.466 0,1.503 -0.525,2.647 -1.577,3.432 -1.051,0.785 -2.554,1.178 -4.507,1.178 z M 2.039,7.38 C 2.877,6.386 3.297,5.092 3.297,3.5 3.297,1.531 2.606,0.017 1.227,-1.045 -0.154,-2.105 -2.204,-2.637 -4.922,-2.637 H -14.86 V 20.58 h 9.301 c 2.421,0 4.305,-0.513 5.654,-1.542 1.348,-1.027 2.023,-2.493 2.023,-4.393 0,-1.327 -0.334,-2.445 -1.003,-3.35 C 0.445,10.388 -0.462,9.735 -1.608,9.337 -0.017,9.027 1.199,8.375 2.039,7.38"
             style="fill:#f27849;fill-opacity:1;fill-rule:nonzero;stroke:none"
             id="path1014" />
        </g>
        <path
           d="m 857.557,456.857 h 1.625 V 433.64 h -1.625 z"
           style="fill:#f27849;fill-opacity:1;fill-rule:nonzero;stroke:none"
           id="path1016" />
        <g
           id="g1018"
           transform="translate(886.3541,435.167)">
          <path
             d="m 0,0 v -1.526 h -17.967 v 1.194 L -2.581,20.165 H -17.775 V 21.69 H -0.351 V 20.497 L -15.705,0 Z"
             style="fill:#f27849;fill-opacity:1;fill-rule:nonzero;stroke:none"
             id="path1020" />
        </g>
      </g>
    </g>
  </g>
</svg>
