<?xml version="1.0" encoding="UTF-8"?>
<svg id="Calque_2" data-name="Calque 2" xmlns="http://www.w3.org/2000/svg" viewBox="0 0 759.31 394.05">
  <defs>
    <style>
      .cls-1, .cls-2 {
        stroke-width: 0px;
      }

      .cls-2 {
        fill: #fff;
      }
    </style>
  </defs>
  <g id="Calque_1-2" data-name="Calque 1">
    <g>
      <g>
        <path class="cls-2" d="m3,271.74c-1.66,0-3-1.34-3-3V43.69c0-1.66,1.34-3,3-3h56.26c37.72,0,57.66,17.49,57.66,50.58v40.19c0,33.09-19.94,50.58-57.66,50.58h-23.04v86.7c0,1.66-1.34,3-3,3H3Zm54.98-122.71c16.35,0,22.72-6.55,22.72-23.36v-28.61c0-17.04-6.37-23.68-22.72-23.68h-21.76v75.66h21.76Z"/>
        <rect class="cls-2" x="139.85" y="40.69" width="36.22" height="231.05" rx="3" ry="3"/>
        <path class="cls-2" d="m263.73,274.31c-38.26,0-57.66-17.02-57.66-50.58V88.7c0-32.62,20.48-50.58,57.66-50.58h.64c37.18,0,57.66,17.96,57.66,50.58v40.19c0,1.66-1.34,3-3,3h-30.22c-1.66,0-3-1.34-3-3v-34.4c0-17.04-6.1-23.68-21.75-23.68s-21.76,6.64-21.76,23.68v123.46c0,17.04,6.1,23.69,21.76,23.69s21.75-6.64,21.75-23.69v-39.87c0-1.66,1.34-3,3-3h30.22c1.66,0,3,1.34,3,3v45.65c0,33.56-19.4,50.58-57.66,50.58h-.64Z"/>
        <path class="cls-2" d="m401.65,274.31c-38.15,0-56.69-16.33-56.69-49.94v-38.26c0-1.66,1.34-3,3-3h29.58c1.66,0,3,1.34,3,3v33.11c0,15.5,6.81,22.72,21.43,22.72s21.43-7.22,21.43-22.72v-17.68c0-11.64-3.54-16.81-16.47-24.07l-28.92-16.07c-21.93-12.68-33.05-23.22-33.05-45.7v-28.29c0-31.33,20.55-49.3,56.37-49.3h.64c35.82,0,56.37,17.97,56.37,49.3v35.69c0,1.66-1.34,3-3,3h-29.58c-1.66,0-3-1.34-3-3v-30.54c0-15.47-6.31-22.08-21.11-22.08s-21.11,6.6-21.11,22.08v15.43c0,11.91,3.84,16.03,16.18,23.12l29.21,16.05c20.42,11.57,33.06,23.3,33.06,46.03v31.19c0,33.6-18.54,49.94-56.69,49.94h-.64Z"/>
        <path class="cls-2" d="m701.01,274.31c-18.53,0-32.17-3.83-41.7-11.7-10.16-8.4-15.32-21.48-15.32-38.88V43.69c0-1.66,1.34-3,3-3h30.22c1.66,0,3,1.34,3,3v174.25c0,17.49,5.61,23.69,21.43,23.69s21.43-6.2,21.43-23.69V43.69c0-1.66,1.34-3,3-3h30.22c1.66,0,3,1.34,3,3v180.04c0,33.56-19.18,50.58-57.01,50.58h-1.29Z"/>
        <g>
          <path class="cls-2" d="m530.61,93.11l-2.22,4.56c1.12,2.28,2.53,4.59,4.23,6.89l2.34-4.81c-1.69-2.22-3.15-4.43-4.35-6.64Z"/>
          <path class="cls-2" d="m539.11,196.66c-2.22.83-4.43,1.57-6.63,2.23l-2.06-5.32c2.2-.65,4.42-1.4,6.62-2.25l2.07,5.34Z"/>
          <path class="cls-2" d="m550.73,43.99l1.56,4.5c1.72-1.83,3.23-3.72,4.46-5.62l-1.48-4.28c-1.29,1.85-2.81,3.65-4.54,5.4Z"/>
          <path class="cls-2" d="m547.96,192.89c-2.07,1-4.21,1.94-6.4,2.82l-2.07-5.34c2.2-.85,4.34-1.8,6.41-2.79l2.06,5.31Z"/>
          <path class="cls-2" d="m558.26,40.28c2.24-4.32,3.02-8.61,1.99-12.54-.53,2.78-1.68,5.64-3.41,8.45l1.42,4.09Z"/>
          <path class="cls-2" d="m526.5,80.3c-1.67,4.25-1.38,9.15.55,14.27l2.11-4.35c-1.53-3.4-2.44-6.74-2.66-9.92Z"/>
          <path class="cls-2" d="m487.97,240.99c.37,4.67,2.84,9.06,6.91,12.92v-4.97c-2.94-2.44-5.28-5.12-6.91-7.95Z"/>
          <path class="cls-2" d="m513.67,64.29l1.62,4.67c1.92-.49,3.86-1.07,5.81-1.72l-1.63-4.69c-1.93.67-3.88,1.25-5.8,1.74Z"/>
          <path class="cls-2" d="m497.51,256.17c2.05,1.6,4.38,3.1,6.98,4.46v-5.49c-2.54-1.28-4.88-2.68-6.98-4.17v5.2Z"/>
          <path class="cls-2" d="m536.81,54.72l1.61,4.64c1.83-1.09,3.58-2.23,5.22-3.42l-1.6-4.62c-1.66,1.2-3.4,2.3-5.23,3.4Z"/>
          <path class="cls-2" d="m529.94,199.61c-.42.11-.83.22-1.24.32-.41.11-.82.21-1.24.31-.33.09-.65.16-.98.24-.49.11-.98.22-1.46.33-.65.14-1.3.27-1.95.39l-2.05-5.29c2.25-.44,4.54-.99,6.87-1.61l2.05,5.31Z"/>
          <path class="cls-2" d="m543.96,49.93l1.6,4.6c1.79-1.37,3.44-2.78,4.94-4.24l-1.57-4.54c-1.53,1.44-3.19,2.84-4.97,4.18Z"/>
          <path class="cls-2" d="m534.8,55.87c-1.74.96-3.57,1.89-5.45,2.78l1.62,4.67c1.88-.9,3.7-1.82,5.44-2.8l-1.61-4.65Z"/>
          <path class="cls-2" d="m468.05,59.66c1.63,3.73,4.89,6.62,9.32,8.63l-1.4-4.07c-3.11-1.17-5.78-2.7-7.92-4.56Z"/>
          <path class="cls-2" d="m490.13,195.99l1.87,4.85c2.49.75,5.21,1.31,8.13,1.64l-1.98-5.12c-2.84-.28-5.52-.73-8.02-1.37Z"/>
          <path class="cls-2" d="m505.45,66.03l1.61,4.65c1.97-.3,3.98-.7,6.01-1.17l-1.62-4.66c-2.03.46-4.03.86-6,1.18Z"/>
          <path class="cls-2" d="m496.95,66.93l1.6,4.62c2.02-.07,4.1-.26,6.22-.54l-1.61-4.64c-2.09.29-4.17.48-6.21.56Z"/>
          <path class="cls-2" d="m556.48,188.27c-1.96,1.21-4.03,2.35-6.16,3.45l-2.06-5.31c.58-.3,1.15-.6,1.72-.91.77-.41,1.52-.83,2.26-1.25.74-.42,1.47-.84,2.19-1.27l.9,2.33,1.15,2.96Z"/>
          <path class="cls-2" d="m478.69,65.13l1.47,4.26c2.14.73,4.48,1.3,6.99,1.68l-1.55-4.5c-2.45-.33-4.76-.81-6.91-1.44Z"/>
          <path class="cls-2" d="m488.09,66.82l1.57,4.53c2.08.23,4.25.32,6.51.28l-1.6-4.6c-2.22.05-4.39-.02-6.48-.21Z"/>
          <path class="cls-2" d="m477.63,190.13c2.03,4.22,5.92,7.42,11.11,9.55l-1.79-4.63c-3.63-1.21-6.77-2.87-9.32-4.92Z"/>
          <path class="cls-2" d="m564.62,182.69c-.11.09-.23.18-.34.26h0c-.7.56-1.41,1.09-2.15,1.61-.16.12-.32.24-.49.35-.23.17-.45.32-.68.48h-.01c-.36.25-.72.5-1.09.74-.36.25-.74.49-1.11.73l-.6-1.55-1.01-2.62-.43-1.12c2.07-1.34,4.03-2.69,5.88-4.14l2.04,5.26Z"/>
          <path class="cls-2" d="m521.63,61.8l1.62,4.69c1.93-.69,3.81-1.44,5.63-2.24l-1.61-4.66c-1.82.8-3.71,1.54-5.64,2.21Z"/>
          <path class="cls-2" d="m555.26,247.18v5.73c-2.36-.03-4.7-.13-6.99-.32v-5.69c2.29.18,4.63.28,6.99.28Z"/>
          <path class="cls-2" d="m584.02,260.61c2.57-1.34,4.94-2.84,6.98-4.44v-5.23c-2.1,1.52-4.43,2.92-6.98,4.18v5.49Z"/>
          <path class="cls-2" d="m574.49,245.69v5.67c-2.26.42-4.6.74-6.99,1v-5.7c2.39-.26,4.73-.58,6.99-.97Z"/>
          <path class="cls-2" d="m564.87,246.9v5.69c-2.28.19-4.62.29-6.98.32v-5.73c2.36,0,4.7-.1,6.98-.28Z"/>
          <path class="cls-2" d="m584.1,243.45v5.65c-2.23.68-4.57,1.26-6.99,1.76v-5.67c2.42-.5,4.73-1.05,6.99-1.74Z"/>
          <path class="cls-2" d="m605.95,232.56v4.99c4.07-3.86,6.54-8.25,6.91-12.93-1.63,2.84-3.97,5.52-6.91,7.94Z"/>
          <path class="cls-2" d="m595,247.73h-.01c-.18.17-.37.34-.56.5-.26.24-.53.47-.8.69v4.99c.76-.72,1.47-1.47,2.11-2.23.27-.32.53-.64.78-.96.32-.4.61-.8.88-1.21.09-.13.18-.26.26-.39.16-.25.32-.5.47-.76.03-.06.07-.12.1-.18.13-.23.26-.47.38-.7.15-.29.29-.57.42-.86.2-.42.38-.85.53-1.28-1.03.61-2.11,1.19-3.22,1.74-.44.22-.88.44-1.34.65Z"/>
          <path class="cls-2" d="m602.38,138.41c2.82-.08,5.53-.39,8.01-.92l2.23-4.59c-2.49.45-5.14.67-7.91.69l-2.33,4.82Z"/>
          <path class="cls-2" d="m613.66,136.63c5.21-1.66,9.25-4.45,11.56-8.4-2.64,1.8-5.83,3.15-9.44,4.02l-2.12,4.38Z"/>
          <path class="cls-2" d="m637.96,111.15c-.22-3.77-1.25-7.67-3.04-11.56-.48-1.13-1.05-2.27-1.62-3.27-1.33-2.43-2.92-4.86-4.73-7.22-.59-.77-1.25-1.59-1.9-2.35-1.59-1.91-3.37-3.82-5.27-5.65-.7-.69-1.42-1.35-2.08-1.91-1.62-1.49-3.43-3-5.68-4.74-.73-.57-1.46-1.11-2.23-1.67-1.78-1.28-3.8-2.63-6.02-4.02l-2.24-1.34c-2.1-1.25-4.2-2.38-6.18-3.34-.32-.18-.65-.34-.99-.51l-.28-.14c-.44-.22-.89-.43-1.25-.58-2.28-1.08-4.47-2.04-6.55-2.84l-2.47-.94c-2.5-.89-4.8-1.64-6.87-2.22l-.56-.16c-.7-.19-1.38-.39-2-.54-2.47-.65-4.9-1.17-7.17-1.53-.96-.18-1.9-.33-2.88-.46-2.78-.38-5.31-.6-7.68-.66-.45-.02-.95-.04-1.46-.05,1.72-1.8,3.23-3.62,4.47-5.39.71-.99,1.32-1.92,1.77-2.71,2.06-3.37,3.41-6.78,4.02-10.12.69-3.8.45-7.45-.73-10.84l-2.36-6.82c-1.17-3.39-3.23-6.4-6.12-8.95-2.53-2.25-5.68-4.09-9.32-5.46-.95-.38-2.04-.75-3.15-1.05-2.35-.69-4.9-1.22-7.62-1.59-.85-.1-1.77-.2-2.61-.27-1.75-.17-3.59-.25-5.64-.25-.44,0-.89,0-1.33.01-.84.01-1.7.04-2.49.1-1.92.07-3.97.25-6.64.59-.69.1-1.38.2-2.05.31l-.37.05c-2.04.34-4.16.76-6.36,1.27l-2.25.56c-2.04.51-4.09,1.13-6.02,1.8-.29.09-.6.19-.92.3l-.39.13c-.39.14-.78.28-1.06.39-1.96.69-3.9,1.45-5.92,2.34l-2.19.98c-2.05.97-3.91,1.92-5.66,2.89-.75.4-1.47.82-2.13,1.21-1.93,1.14-3.8,2.35-5.49,3.57-.72.49-1.44,1-2.09,1.51-1.87,1.39-3.67,2.91-5.34,4.49l-.28.26c-.56.53-1.15,1.07-1.68,1.63-1.88,1.93-3.55,3.92-4.99,5.93-.68.96-1.26,1.84-1.76,2.68-2.04,3.38-3.38,6.8-3.99,10.15-.7,3.77-.45,7.42.72,10.83l2.36,6.82c1.18,3.4,3.24,6.42,6.13,8.97,2.51,2.22,5.68,4.06,9.37,5.46.81.32,1.76.63,3.09,1.04,2.34.68,4.89,1.22,7.59,1.58,1.03.13,2.04.22,2.64.26,1.77.17,3.62.25,5.66.25.43,0,.87-.01,1.31-.01.85,0,1.71-.05,2.5-.1,2.13-.09,4.36-.29,6.63-.6.76-.1,1.5-.22,2.24-.33l.19-.03c2.02-.33,4.15-.75,6.34-1.26l2.24-.56c1.44-.37,2.91-.79,4.38-1.26l-.86,1.79c-1.72,3.53-2.46,7.47-2.2,11.72.22,3.7,1.26,7.61,3.06,11.62.43.97.95,2.03,1.61,3.23,1.32,2.4,2.91,4.83,4.74,7.23.53.68,1.13,1.42,1.89,2.31,1.6,1.92,3.39,3.83,5.3,5.66.72.7,1.42,1.35,2.05,1.9.19.18.38.35.57.52-1.11.14-2.27.32-3.52.52-.95.16-1.87.33-2.78.52-2.15.42-4.51.97-7.25,1.7l-2.57.74c-2.34.7-4.66,1.48-6.81,2.31-.41.14-.84.3-1.25.46l-.41.16c-.37.14-.74.29-1.08.45-2.13.83-4.36,1.8-6.66,2.9l-2.42,1.2c-2.26,1.18-4.42,2.38-6.44,3.59l-.19.12c-.73.44-1.44.87-2.17,1.34-2.34,1.5-4.42,2.96-6.1,4.29-.77.56-1.56,1.17-2.36,1.83-2.11,1.71-4.09,3.51-5.85,5.3-.88.86-1.59,1.58-2.21,2.28-2.08,2.31-3.91,4.64-5.43,6.95-.68,1.03-1.31,2.08-1.9,3.13-2.18,3.95-3.56,7.86-4.09,11.62-.63,4.27-.21,8.34,1.25,12.11l3.01,7.75c1.44,3.76,3.87,7.06,7.22,9.81,2.92,2.4,6.57,4.36,10.86,5.81,1.06.36,2.24.7,3.5,1.02.66.18,1.33.33,2,.48,0,.02-.02.05-.02.07-.71.53-1.38,1.05-2,1.56-3.44,2.88-6.15,6.03-8.03,9.37-2.12,3.77-3.2,7.72-3.2,11.74v8.33c0,4.01,1.08,7.96,3.2,11.74,1.86,3.3,4.57,6.44,8.04,9.34.98.81,1.95,1.55,2.89,2.21,2.26,1.62,4.8,3.15,7.59,4.56.73.36,1.51.72,2.29,1.06l.5.22c2.4,1.08,4.9,2.04,7.4,2.83,1,.34,1.93.62,2.79.85,2.25.69,4.72,1.3,7.35,1.83.91.18,1.83.36,2.74.51,2.16.38,4.49.7,7.37,1.03l2.65.23c2.38.2,4.81.3,7.22.31.47.03.96.03,1.46.03s.99,0,1.46-.03c2.4,0,4.83-.11,7.25-.31l2.71-.25c2.76-.3,5.06-.62,7.24-1,.95-.16,1.87-.34,2.79-.53,2.89-.6,5.22-1.18,7.26-1.8.8-.21,1.67-.47,2.81-.85,2.53-.8,5.03-1.76,7.43-2.84.94-.42,1.89-.86,2.81-1.32,2.76-1.37,5.31-2.89,7.52-4.49,1.08-.74,2.12-1.54,2.95-2.27,3.46-2.84,6.17-5.98,8.06-9.33,1-1.8,1.78-3.63,2.3-5.47.73-.54,1.4-1.06,1.97-1.56,3.47-2.87,6.18-6.01,8.03-9.32,2.13-3.76,3.21-7.71,3.21-11.75v-8.32c0-4.04-1.08-7.99-3.2-11.73-1.88-3.35-4.57-6.49-7.96-9.3-.97-.83-1.98-1.61-2.97-2.29-2.23-1.59-4.78-3.11-7.58-4.54-.98-.48-1.93-.92-2.8-1.31-2.41-1.08-4.9-2.04-7.39-2.83-1.04-.35-1.98-.63-2.8-.85-2.1-.63-4.43-1.21-7.34-1.82-.06,0-.11-.02-.16-.04.26-.27.53-.55.78-.83,2.11-2.32,3.93-4.66,5.38-6.9.74-1.07,1.42-2.18,1.94-3.17,2.18-3.9,3.58-7.81,4.13-11.6.63-4.27.21-8.35-1.25-12.11l-.49-1.28c.69.13,1.4.24,2.09.33,2.65.37,5.26.59,7.76.67.76.02,1.53.03,2.28.03h.73c3.07-.02,5.96-.27,8.53-.73,1.29-.2,2.54-.46,3.57-.74,4.27-1.04,7.99-2.64,11.06-4.77,3.48-2.41,6.12-5.43,7.84-8.98l3.55-7.3c1.73-3.57,2.47-7.52,2.2-11.72Zm-6.25,9.76l-3.55,7.3c-1.41,2.9-3.58,5.32-6.36,7.25-2.66,1.84-5.89,3.2-9.56,4.09-1.02.28-2.09.5-3.17.66-2.49.44-5.13.66-7.9.68-.92.01-1.88,0-2.83-.03-2.36-.07-4.79-.28-7.27-.63-.88-.11-1.75-.25-2.64-.43-2.27-.36-4.53-.86-6.86-1.45-.16-.04-.33-.08-.49-.13.21.42.39.84.56,1.28l3,7.76c1.2,3.09,1.5,6.41,1,9.84-.48,3.28-1.71,6.66-3.61,10.04-.5.95-1.09,1.91-1.72,2.83-1.41,2.18-3.08,4.32-5,6.42-.64.7-1.32,1.41-2.01,2.1-1.62,1.65-3.39,3.25-5.28,4.8,2.21.26,4.38.55,6.47.91.89.16,1.75.32,2.62.5,2.42.5,4.73,1.05,6.99,1.74.89.23,1.76.5,2.62.79,2.45.78,4.78,1.68,6.99,2.67.89.4,1.79.82,2.63,1.24,2.54,1.29,4.88,2.68,6.98,4.17.92.63,1.81,1.32,2.63,2.03,2.99,2.47,5.36,5.2,6.98,8.09,1.71,3.02,2.63,6.22,2.63,9.53v8.32c0,3.31-.92,6.52-2.63,9.54-1.62,2.89-3.99,5.59-6.98,8.06-.82.71-1.71,1.39-2.63,2.02-.14.11-.29.21-.44.31-.41,2.05-1.18,4.05-2.26,5.97-1.63,2.89-3.99,5.59-6.99,8.06-.81.71-1.71,1.4-2.63,2.03-2.1,1.52-4.43,2.91-6.98,4.17-.84.42-1.73.84-2.63,1.24-2.2.99-4.54,1.89-6.98,2.67-.87.29-1.74.56-2.63.79-2.26.69-4.57,1.24-6.99,1.74-.86.18-1.73.34-2.62.49-2.26.4-4.6.71-6.99.98-.87.08-1.76.15-2.62.23-2.29.19-4.63.29-6.99.29-.42.03-.87.03-1.31.03s-.9,0-1.32-.03c-2.36,0-4.7-.1-6.98-.29-.87-.08-1.76-.15-2.63-.23-2.39-.27-4.73-.58-6.99-.98-.89-.15-1.76-.31-2.62-.49-2.39-.48-4.73-1.05-6.99-1.74-.89-.23-1.76-.5-2.62-.79-2.45-.78-4.78-1.68-6.99-2.67-.89-.4-1.79-.79-2.63-1.21-2.54-1.29-4.88-2.68-6.98-4.18-.92-.65-1.81-1.34-2.63-2.02-2.99-2.5-5.36-5.2-6.99-8.09-1.7-3.02-2.62-6.22-2.62-9.53v-8.33c0-3.31.92-6.51,2.62-9.53,1.63-2.89,4-5.62,6.99-8.12.82-.68,1.71-1.36,2.63-2.02.13-.09.25-.18.38-.27.02-.02.05-.03.07-.05.04-.19.08-.37.13-.56.04-.17.08-.35.13-.52.44-1.65,1.11-3.26,1.99-4.82.07-.13.14-.25.23-.38-2.58-.28-5.02-.71-7.31-1.3-1.09-.28-2.17-.59-3.18-.93-3.69-1.25-6.87-2.92-9.43-5.02-2.68-2.2-4.7-4.86-5.89-7.95l-3.01-7.76c-1.19-3.09-1.49-6.41-.99-9.84.47-3.28,1.69-6.68,3.58-10.09.52-.93,1.1-1.89,1.72-2.83,1.42-2.16,3.1-4.3,5.01-6.42.63-.7,1.32-1.39,2.01-2.07,1.7-1.73,3.56-3.41,5.55-5.03.7-.58,1.42-1.14,2.16-1.68,1.86-1.45,3.84-2.83,5.89-4.14.75-.48,1.5-.94,2.27-1.41,1.97-1.18,4.03-2.32,6.17-3.43.78-.39,1.58-.78,2.36-1.17,2.06-.99,4.21-1.94,6.41-2.79.38-.18.8-.34,1.22-.5.41-.16.83-.32,1.23-.45,2.2-.85,4.42-1.6,6.62-2.25.84-.24,1.7-.49,2.53-.73,2.33-.62,4.62-1.17,6.87-1.61.89-.18,1.75-.35,2.63-.49,2.43-.4,4.79-.72,7.14-.9.92-.11,1.82-.17,2.73-.22,1.73-.09,3.43-.13,5.1-.1-.75-.5-1.48-1.01-2.2-1.53-.71-.52-1.41-1.02-2.09-1.55-1.89-1.44-3.7-2.94-5.39-4.5-.68-.59-1.33-1.19-1.97-1.81-1.8-1.73-3.47-3.51-4.98-5.32-.62-.73-1.23-1.46-1.79-2.18-1.69-2.22-3.14-4.43-4.35-6.64-.53-.97-1.02-1.95-1.44-2.89-1.56-3.47-2.49-6.84-2.68-10.07-.21-3.38.34-6.58,1.75-9.48l3.55-7.3c1.03-2.13,2.46-3.98,4.25-5.58-.26.13-.52.25-.78.38-.69.31-1.4.63-2.08.94-1.82.79-3.71,1.54-5.64,2.21-.34.14-.71.27-1.07.4-.37.12-.73.25-1.08.35-1.94.67-3.88,1.25-5.81,1.74-.73.18-1.48.37-2.22.55-2.03.47-4.03.87-5.99,1.19-.78.12-1.54.24-2.3.34-2.09.29-4.17.48-6.21.56-.8.06-1.58.09-2.38.1-2.22.04-4.39-.02-6.48-.22-.84-.06-1.68-.13-2.49-.24-2.45-.33-4.76-.81-6.91-1.44-.94-.28-1.86-.58-2.72-.91-3.16-1.2-5.87-2.74-8.02-4.64-2.25-1.99-3.92-4.36-4.86-7.07l-2.36-6.82c-.93-2.71-1.09-5.59-.55-8.55.52-2.83,1.68-5.74,3.42-8.63.47-.79,1.01-1.6,1.58-2.4,1.3-1.82,2.82-3.63,4.54-5.4.57-.59,1.19-1.16,1.81-1.74,1.52-1.44,3.18-2.84,4.96-4.17.63-.49,1.26-.95,1.93-1.39,1.65-1.2,3.4-2.34,5.23-3.41.65-.39,1.32-.77,2.01-1.15,1.73-.96,3.56-1.88,5.44-2.78.69-.31,1.4-.62,2.09-.93,1.82-.8,3.7-1.55,5.64-2.22.33-.14.7-.27,1.07-.4.36-.12.73-.25,1.08-.35,1.93-.67,3.88-1.25,5.8-1.74.73-.18,1.49-.37,2.22-.55,2.03-.47,4.04-.87,6-1.19.77-.12,1.53-.24,2.29-.34,2.12-.27,4.17-.48,6.22-.56.79-.06,1.58-.09,2.37-.1,2.22-.04,4.39.02,6.48.22.85.07,1.7.16,2.5.26,2.46.33,4.76.81,6.91,1.44.93.26,1.86.56,2.72.91,3.16,1.18,5.87,2.74,8.02,4.65,2.26,1.99,3.92,4.35,4.86,7.06l2.36,6.82c.94,2.71,1.09,5.6.55,8.55-.51,2.83-1.68,5.72-3.43,8.59-.47.81-1.01,1.62-1.58,2.4-1.29,1.85-2.81,3.65-4.54,5.4-.57.59-1.18,1.18-1.8,1.76-1.53,1.44-3.19,2.84-4.96,4.18-.63.48-1.27.94-1.93,1.39-.89.65-1.81,1.26-2.75,1.87.82-.27,1.67-.51,2.54-.73,1-.25,2.07-.47,3.16-.65,2.48-.42,5.12-.65,7.91-.69.91-.01,1.86.02,2.81.06,2.36.06,4.79.28,7.27.62.89.12,1.76.26,2.64.43,2.27.36,4.57.85,6.87,1.46.83.2,1.66.44,2.51.68,2.15.61,4.34,1.33,6.54,2.12.8.3,1.61.61,2.41.91,2.08.81,4.17,1.72,6.25,2.72.38.16.77.35,1.16.54.39.19.78.38,1.14.58,2.07,1.01,4.08,2.1,6,3.23.73.44,1.48.89,2.21,1.33,1.98,1.24,3.9,2.52,5.71,3.82.72.52,1.41,1.03,2.09,1.56,1.91,1.47,3.7,2.94,5.39,4.5.68.58,1.33,1.18,1.97,1.81,1.8,1.73,3.47,3.51,4.98,5.32.62.73,1.22,1.47,1.78,2.2,1.69,2.21,3.15,4.43,4.35,6.64.54.94,1.03,1.92,1.44,2.89,1.58,3.44,2.49,6.84,2.68,10.07.22,3.38-.34,6.58-1.75,9.48Z"/>
          <path class="cls-2" d="m577.82,156.26c-.47,1.03-1.01,2.06-1.63,3.06-1.33,2.23-3,4.48-4.9,6.69-.63.71-1.31,1.43-1.99,2.14-1.67,1.72-3.52,3.42-5.52,5.1-.7.58-1.41,1.14-2.15,1.71-1.85,1.41-3.81,2.82-5.89,4.13-.74.49-1.49.97-2.27,1.42-1.36.83-2.76,1.63-4.21,2.42h0c-.12.07-.25.14-.38.21-.52.27-1.04.55-1.56.82-.78.39-1.55.77-2.36,1.17-.78.38-1.58.75-2.39,1.11-.48.22-.96.43-1.45.63-.3.14-.61.27-.93.4-.54.23-1.08.45-1.63.67l-2.45.95c-2.21.83-4.43,1.58-6.63,2.23-.83.24-1.7.49-2.53.73-2.33.62-4.62,1.17-6.87,1.62-.89.17-1.75.34-2.64.45-.25.05-.51.09-.76.13-.01,0-.01.01-.01.01,0,0,0-.01,0-.01-.72.13-1.44.24-2.15.33-.32.05-.63.09-.94.13-1.03.13-2.05.23-3.06.3-.07,0-.14,0-.21.02-.93.08-1.85.15-2.74.19-2.61.11-5.12.09-7.51-.05-.99-.07-1.97-.14-2.91-.25-2.92-.34-5.64-.89-8.13-1.64-1.14-.32-2.22-.72-3.27-1.16-4.12-1.7-7.42-4.05-9.61-7.09-.86-1.13-1.54-2.37-2.05-3.69l-.44-1.13s.02-.09.03-.15c-1.35-4.49-.63-9.47,1.78-14.54.47-1.03,1-2.05,1.62-3.08,1.33-2.23,2.97-4.47,4.91-6.66.63-.72,1.3-1.46,1.99-2.15,1.66-1.74,3.51-3.44,5.52-5.09.68-.58,1.4-1.17,2.15-1.71,1.84-1.44,3.81-2.83,5.88-4.16.74-.49,1.48-.97,2.27-1.42,1.95-1.2,4.02-2.34,6.15-3.45.78-.39,1.59-.78,2.37-1.17,2.06-1,4.2-1.94,6.4-2.81l2.45-.95c2.21-.83,4.43-1.58,6.63-2.23.86-.25,1.7-.49,2.53-.73,2.33-.62,4.62-1.17,6.88-1.59.89-.18,1.75-.34,2.63-.48,2.43-.41,4.82-.72,7.15-.88.91-.11,1.83-.15,2.74-.19,2.6-.14,5.11-.12,7.51.05.24,0,.49.02.73.04h.07s.01,0,.01,0h.02l1.5.9c1.92,1.13,3.93,2.22,6,3.22.36.21.75.4,1.14.59.39.19.79.38,1.17.53,2.07,1.01,4.16,1.91,6.25,2.72.79.3,1.61.62,2.4.92,1.67.59,3.33,1.15,4.96,1.65,0,.02.02.03.02.04.11.15.21.31.31.47s.19.32.28.48c.08.13.15.26.22.39.12.21.23.42.33.64.05.04.08.06.12.1l.44,1.12c.51,1.33.84,2.69.97,4.11.42,3.72-.43,7.68-2.34,11.71Z"/>
          <path class="cls-2" d="m555.9,33.47c-.45.88-.94,1.74-1.51,2.59-1.23,1.9-2.74,3.79-4.46,5.64-.28.3-.57.6-.87.89-.29.31-.6.61-.91.91-1.51,1.44-3.16,2.85-4.95,4.24-.62.48-1.26.94-1.92,1.41-1.64,1.17-3.38,2.33-5.23,3.4-.65.4-1.31.8-2.01,1.16-1.73.98-3.55,1.9-5.43,2.8-.69.31-1.38.63-2.09.94-1.82.8-3.7,1.55-5.63,2.24l-2.15.75c-1.95.65-3.89,1.23-5.81,1.72-.74.18-1.49.37-2.22.55-2.04.47-4.04.87-6,1.19-.78.12-1.53.24-2.3.31-2.11.3-4.19.49-6.22.57-.8.03-1.61.07-2.38.07-2.26.02-4.43-.07-6.5-.27-.85-.09-1.7-.19-2.52-.31-2.51-.38-4.85-.95-6.99-1.68-.97-.31-1.9-.69-2.79-1.1-1.77-.8-3.36-1.75-4.72-2.84-.19-.16-.38-.31-.57-.47-.21-.18-.42-.37-.62-.56-.54-.51-1.03-1.04-1.48-1.6-.25-.32-.5-.65-.72-.99-.18-.25-.35-.51-.5-.78-.31-.52-.59-1.05-.83-1.61-.12-.28-.23-.57-.33-.86l-.34-.99c0-.05.02-.08.03-.13-1.03-3.94-.25-8.23,1.99-12.55.11-.22.23-.44.35-.66.23-.43.48-.87.75-1.3.13-.22.27-.43.41-.65,1.22-1.9,2.71-3.78,4.46-5.62.28-.3.57-.61.87-.91.15-.15.3-.3.46-.45.15-.15.3-.31.46-.45,1.49-1.46,3.14-2.87,4.94-4.24.3-.24.61-.48.93-.71.33-.24.65-.47.99-.7,1.63-1.19,3.38-2.33,5.22-3.42.66-.4,1.31-.8,2.01-1.16,1.73-.98,3.55-1.9,5.44-2.8.69-.31,1.39-.62,2.08-.93,1.82-.8,3.71-1.55,5.63-2.24l2.16-.75c1.94-.65,3.88-1.22,5.81-1.72.75-.19,1.48-.37,2.22-.55,2.03-.47,4.03-.87,6-1.17.78-.12,1.53-.24,2.29-.33,2.12-.28,4.2-.47,6.23-.54.79-.06,1.59-.07,2.38-.08,2.25-.03,4.43.06,6.5.28.84.07,1.7.18,2.52.31,2.49.36,4.85.92,6.98,1.65.98.33,1.91.71,2.8,1.13,4.43,2,7.69,4.9,9.32,8.62.04.04.07.05.1.09l.35.99c.4,1.16.64,2.35.71,3.59.25,3.24-.62,6.65-2.39,10.08Z"/>
          <path class="cls-2" d="m572.3,168.63l1.98,5.11c1.92-2.17,3.58-4.42,4.91-6.66l-1.88-4.87c-1.41,2.18-3.09,4.32-5.01,6.42Z"/>
          <path class="cls-2" d="m572.3,175.89c-1.66,1.75-3.51,3.45-5.52,5.1l-2.03-5.24c1.99-1.62,3.85-3.3,5.55-5.02l2,5.16Z"/>
          <path class="cls-2" d="m580.83,164.03c2.4-5.07,3.12-10.05,1.77-14.55-.49,3.24-1.7,6.58-3.57,9.9l1.8,4.65Z"/>
          <path class="cls-2" d="m612.93,213.75v1.21c0,1.42-.18,2.81-.57,4.18-.95,3.62-3.18,7.01-6.41,10.08-.82.79-1.68,1.55-2.63,2.26-.03.02-.05.04-.08.06-.2.16-.41.32-.62.47-.1.08-.2.16-.31.23-.37.27-.74.53-1.12.79-.23.16-.47.32-.72.48-1.29.85-2.68,1.66-4.13,2.43-.84.45-1.74.87-2.63,1.29-2.18,1-4.52,1.92-6.99,2.76-.86.29-1.73.55-2.62.81-2.23.66-4.57,1.26-6.99,1.74-.87.18-1.73.36-2.62.49-2.26.42-4.6.74-6.99,1-.87.08-1.73.16-2.63.24-2.28.18-4.62.29-6.98.31h-2.63c-2.36-.02-4.7-.13-6.99-.31-.86-.08-1.76-.16-2.62-.24-2.39-.26-4.73-.58-6.99-.97-.89-.16-1.76-.31-2.62-.52-2.42-.48-4.76-1.05-6.99-1.74-.89-.26-1.79-.52-2.63-.81-2.47-.84-4.8-1.76-6.98-2.76-.9-.42-1.79-.84-2.63-1.29-2.6-1.36-4.94-2.86-6.99-4.46-.94-.71-1.81-1.47-2.62-2.26-3.23-3.07-5.46-6.46-6.41-10.08-.08-.28-.15-.57-.21-.85-.04-.16-.07-.32-.1-.48,0-.04-.02-.08-.02-.12-.08-.43-.14-.86-.17-1.3-.02-.19-.04-.37-.05-.56-.02-.29-.03-.58-.03-.87v-1.21s.05-.08.08-.13c.02-.29.06-.58.1-.87v-.03h.01c.03-.22.06-.43.1-.64.03-.18.06-.36.11-.54.08-.44.2-.88.33-1.31.03-.12.07-.23.11-.35.07-.22.14-.44.23-.66.2-.53.42-1.06.68-1.58.12-.26.25-.52.4-.78.14-.27.3-.54.46-.81.16-.26.32-.52.49-.78.24.01.49.02.73.03,1.69.1,3.41.12,5.17.07.76-.01,1.53-.04,2.31-.09.91-.04,1.82-.11,2.74-.21,2.35-.18,4.74-.49,7.14-.91.53-.09,1.04-.19,1.58-.28.01,0,.03,0,.04,0h.01c.23-.05.46-.1.69-.15.33-.07.67-.15,1.01-.21.23-.05.46-.1.7-.13.03,0,.05,0,.08-.02.02,0,.03,0,.05,0,.46-.1.93-.2,1.4-.31.85-.19,1.71-.4,2.57-.63.45-.11.91-.23,1.36-.35.84-.24,1.7-.49,2.54-.73,2.14-.64,4.32-1.36,6.48-2.2.05,0,.09-.03.14-.05.4-.13.81-.29,1.23-.45.42-.16.83-.32,1.21-.5,2.21-.85,4.35-1.79,6.41-2.79.78-.38,1.59-.78,2.37-1.17,2.13-1.1,4.2-2.24,6.16-3.43.78-.46,1.53-.92,2.27-1.41,1.86-1.2,3.63-2.41,5.31-3.7.85.08,1.67.15,2.49.23,2.39.26,4.73.58,6.99,1,.89.16,1.75.31,2.62.5,2.42.5,4.76,1.07,6.99,1.76.89.23,1.76.52,2.62.81,2.47.81,4.81,1.73,6.99,2.76.89.39,1.79.84,2.63,1.28,2.57,1.34,4.93,2.84,6.98,4.44.95.74,1.81,1.5,2.63,2.29,4.07,3.86,6.54,8.25,6.91,12.92.02.05.05.08.07.13Z"/>
          <path class="cls-2" d="m581.39,256.35v5.54c-2.18,1.03-4.52,1.95-6.98,2.76v-5.62c2.44-.79,4.78-1.68,6.98-2.68Z"/>
          <path class="cls-2" d="m596.33,244.25c2.57-1.34,4.94-2.84,6.98-4.44v-5.23c-2.1,1.52-4.43,2.92-6.98,4.18v5.49Z"/>
          <path class="cls-2" d="m593.7,239.99v5.54c-2.18,1.03-4.52,1.95-6.98,2.76v-5.62c2.44-.79,4.78-1.68,6.98-2.68Z"/>
          <path class="cls-2" d="m514.11,259.03v5.62c-2.47-.81-4.81-1.73-6.99-2.76v-5.54c2.21,1,4.54,1.89,6.99,2.68Z"/>
          <path class="cls-2" d="m562.17,262.05v5.67c-2.26.42-4.6.74-6.99,1v-5.7c2.39-.26,4.73-.58,6.99-.97Z"/>
          <path class="cls-2" d="m507.2,232.58c-2.94-2.44-5.28-5.12-6.91-7.96.37,4.68,2.84,9.07,6.91,12.93v-4.97Z"/>
          <path class="cls-2" d="m585.96,251.23c-.63.37-1.28.73-1.94,1.08-.84.44-1.73.86-2.63,1.28-2.18,1-4.52,1.92-6.98,2.76-.87.29-1.74.55-2.63.81-2.23.66-4.57,1.27-6.99,1.74-.86.18-1.73.37-2.62.5-2.26.42-4.6.73-6.99.99-.87.08-1.73.16-2.62.24-2.29.19-4.63.29-6.99.32h-2.63c-2.36-.03-4.7-.13-6.98-.32-.87-.08-1.76-.16-2.63-.24-2.39-.26-4.73-.57-6.99-.97-.89-.15-1.76-.31-2.62-.52-2.42-.47-4.76-1.05-6.99-1.74-.89-.26-1.78-.52-2.62-.81-2.47-.84-4.81-1.76-6.99-2.76-.89-.42-1.79-.84-2.63-1.28-2.6-1.37-4.93-2.87-6.98-4.47-.95-.71-1.81-1.47-2.63-2.26-3.23-3.07-5.46-6.46-6.41-10.08-.39-1.37-.58-2.76-.58-4.18v-1.21s.06-.08.08-.13c.37-4.67,2.84-9.06,6.91-12.92.82-.79,1.68-1.55,2.63-2.28.03-.02.05-.04.08-.06v8.56c0,3.31.92,6.52,2.62,9.54,1.63,2.89,3.99,5.59,6.99,8.09.81.68,1.71,1.36,2.62,2.02,2.11,1.5,4.44,2.89,6.99,4.18.84.42,1.73.81,2.63,1.2,2.2,1,4.54,1.89,6.98,2.68.87.29,1.74.55,2.63.79,2.26.68,4.6,1.26,6.99,1.73.86.19,1.73.35,2.62.5,2.26.4,4.6.71,6.99.97.86.08,1.76.16,2.62.24,2.29.18,4.63.29,6.99.29.42.03.87.03,1.31.03s.9,0,1.32-.03c2.36,0,4.7-.11,6.98-.29.87-.08,1.76-.16,2.63-.24,2.39-.26,4.73-.57,6.99-.97.89-.15,1.75-.31,2.62-.5,2.42-.5,4.73-1.05,6.99-1.73.63-.17,1.25-.35,1.86-.55Z"/>
          <path class="cls-2" d="m571.78,259.82v5.64c-2.23.69-4.57,1.26-6.99,1.76v-5.67c2.42-.5,4.73-1.05,6.99-1.73Z"/>
          <path class="cls-2" d="m533.33,263.02v5.7c-2.39-.26-4.73-.58-6.99-1v-5.67c2.26.39,4.6.71,6.99.97Z"/>
          <path class="cls-2" d="m552.56,263.26v5.7c-2.29.18-4.63.29-6.99.31v-5.72c2.36,0,4.7-.11,6.99-.29Z"/>
          <path class="cls-2" d="m542.94,263.55v5.72c-2.36-.02-4.7-.13-6.98-.31v-5.7c2.28.18,4.62.29,6.98.29Z"/>
          <path class="cls-2" d="m545.65,246.66v5.7c-2.39-.26-4.73-.58-6.99-1v-5.67c2.26.39,4.6.71,6.99.97Z"/>
          <path class="cls-2" d="m526.42,242.67v5.62c-2.47-.82-4.8-1.74-6.98-2.76v-5.54c2.2,1,4.54,1.89,6.98,2.68Z"/>
          <path class="cls-2" d="m523.72,261.55v5.67c-2.42-.5-4.76-1.07-6.99-1.76v-5.64c2.26.68,4.6,1.26,6.99,1.73Z"/>
          <path class="cls-2" d="m536.04,245.19v5.67c-2.42-.5-4.76-1.08-6.99-1.76v-5.65c2.26.69,4.6,1.27,6.99,1.74Z"/>
          <path class="cls-2" d="m516.81,238.78c-2.55-1.29-4.88-2.68-6.99-4.18v5.2c2.05,1.61,4.39,3.1,6.99,4.47v-5.49Z"/>
          <path class="cls-2" d="m513.29,202.57c2.33-.17,4.72-.48,7.15-.88l-2.05-5.29c-2.37.42-4.74.71-7.06.89h-.02s-.04,0-.06,0v.03s0,0,0,0l2.03,5.23Z"/>
          <path class="cls-2" d="m508.52,197.52c-.55.03-1.1.05-1.64.06-.23,0-.46.02-.68.02-1.76.05-3.48.03-5.17-.06l1.67,4.29.34.88c.52.04,1.06.06,1.6.08.18.02.36.02.54.02h.01c.77.03,1.55.04,2.34.03.31.01.63,0,.95,0,.16,0,.32,0,.48,0,.53-.01,1.06-.03,1.59-.06l-1.46-3.76-.57-1.48Z"/>
          <path class="cls-2" d="m592.22,137.86c2.51.34,4.96.53,7.3.56l2.36-4.86c-2.36-.07-4.79-.28-7.26-.63l-2.4,4.93Z"/>
          <path class="cls-2" d="m582.7,136.02c2.33.59,4.62,1.08,6.87,1.43l2.41-4.95c-2.27-.36-4.54-.86-6.87-1.45l-2.41,4.97Z"/>
          <path class="cls-2" d="m574.81,130.82l-1.15,2.36-.03.06c.06.02.12.04.18.06t.02.01c.89.32,1.77.62,2.65.91.37.12.74.24,1.1.35.52.17,1.03.32,1.54.46.35.11.71.21,1.06.31l2.42-4.97c-2.15-.62-4.34-1.34-6.54-2.13l-1.25,2.58Z"/>
          <path class="cls-2" d="m571.53,131.7l1.12-2.31,1-2.06c-2.08-.81-4.18-1.71-6.25-2.72l-.96,1.97-1.09,2.26h-.01l-.38.79c2.09.99,4.18,1.89,6.26,2.7l.31-.63Z"/>
          <path class="cls-2" d="m557.07,124.44l-.4.82c.69.41,1.4.82,2.12,1.21.35.2.71.4,1.07.59.36.19.72.38,1.08.58.02,0,.03,0,.04,0,.56.29,1.12.58,1.68.86l.2-.41,1.12-2.3,1.12-2.31c-2.08-1-4.08-2.09-6.01-3.23l-2.02,4.18Z"/>
          <path class="cls-2" d="m556.89,118.94c-1.98-1.25-3.9-2.52-5.71-3.83l-2.42,4.98c1.8,1.33,3.72,2.6,5.7,3.85l2.43-5Z"/>
          <path class="cls-2" d="m629.91,118.58c0,.06.01.1.01.15l-.52,1.06c-.6,1.25-1.35,2.39-2.28,3.42-2.37,2.77-5.77,4.79-9.92,6.11-1.05.35-2.13.65-3.26.87-2.48.53-5.19.84-8.03.94-.93.03-1.89.02-2.85.01-2.34-.06-4.78-.25-7.3-.56-.89-.12-1.76-.25-2.65-.4-2.24-.38-4.55-.84-6.87-1.46-.84-.21-1.68-.41-2.51-.68-2.16-.59-4.35-1.31-6.56-2.1-.79-.3-1.58-.6-2.4-.91-2.08-.81-4.18-1.72-6.26-2.7l-2.31-1.12c-2.06-1.03-4.06-2.12-5.99-3.25-.72-.44-1.47-.89-2.2-1.33-1.98-1.24-3.9-2.52-5.71-3.82-.72-.52-1.41-1.03-2.08-1.58-1.92-1.45-3.73-2.95-5.39-4.5-.67-.61-1.34-1.22-1.96-1.83-1.81-1.79-3.46-3.59-4.95-5.39-.61-.75-1.21-1.5-1.76-2.25-1.7-2.31-3.11-4.62-4.22-6.89-.53-1.03-.97-2.06-1.34-3.1-1.53-4.07-2.04-7.99-1.33-11.58.24-1.36.67-2.66,1.27-3.9l.52-1.06s.08-.05.12-.09c2.32-3.94,6.35-6.73,11.56-8.39,1.05-.34,2.14-.64,3.28-.88,2.48-.53,5.17-.85,8.02-.92.92-.03,1.9-.04,2.85-.01,2.35.03,4.79.22,7.3.56.86.1,1.77.23,2.65.4,2.25.35,4.55.84,6.88,1.43.84.21,1.67.42,2.51.68,2.16.6,4.35,1.32,6.55,2.1.8.3,1.62.62,2.41.92,2.08.81,4.18,1.71,6.26,2.69l2.3,1.12c2.07,1.03,4.07,2.12,6,3.25.75.45,1.47.89,2.2,1.33,1.98,1.25,3.9,2.52,5.7,3.85.72.52,1.41,1.03,2.09,1.56,1.91,1.46,3.71,2.97,5.38,4.52.68.58,1.32,1.21,1.96,1.83,1.81,1.76,3.47,3.57,4.95,5.39.61.73,1.21,1.5,1.75,2.25,1.69,2.27,3.13,4.59,4.24,6.87.52,1.04.95,2.08,1.33,3.12,1.93,5.12,2.22,10.02.56,14.27Z"/>
          <path class="cls-2" d="m543.7,109.06l-2.41,4.95c1.67,1.55,3.47,3.05,5.38,4.52l2.42-4.98c-1.9-1.43-3.7-2.93-5.39-4.49Z"/>
          <path class="cls-2" d="m536.74,101.92l-2.36,4.86c1.48,1.83,3.14,3.63,4.96,5.4l2.39-4.93c-1.81-1.73-3.48-3.51-4.99-5.33Z"/>
        </g>
        <g>
          <path class="cls-1" d="m565.34,128.84l-.38.79.39-.79h-.01Z"/>
          <polygon class="cls-2" points="565.35 128.84 564.96 129.63 565.34 128.84 565.35 128.84"/>
        </g>
      </g>
      <g>
        <g>
          <g>
            <path id="gtkta" class="cls-2" d="m406.05,341.82c-19.96,12.56-30.5,27.98-26.34,38.78,2.84,7.32,11.75,11.75,25.2,12.44,1.21-.84,2.36-1.75,3.47-2.72-7.9-.44-13.64-3.16-16.48-7.9-5.06-8.27-.7-21.09,11.68-34.42.25-2.08,1.07-4.1,2.46-6.19h0Zm-.89,52.17h-.19c-13.89-.7-23.24-5.37-26.21-13.07-2.27-5.87-.63-12.95,4.8-20.4,5.18-7.26,13.51-14.46,24-20.71l.63.69c-2.15,2.65-3.35,5.24-3.73,7.83v.12l-.13.06c-11.93,12.82-16.42,25.58-11.68,33.35,2.84,4.67,8.65,7.27,16.86,7.52l1.14.06-.88.76c-1.33,1.2-2.84,2.46-4.61,3.66v.12Z"/>
            <path id="gtktb" class="cls-2" d="m418.74,389.76c-1.14,1.07-2.46,2.15-3.79,3.16,7.2-.51,14.78-1.89,22.61-4.17-.2-1.35-.39-2.69-.57-4.04-6.38,2.53-12.5,4.17-18.25,5.05h0Zm-7.01,4.29l1.33-.95c1.81-1.26,3.52-2.65,5.12-4.17l.13-.13h.12c5.87-.88,12.19-2.65,18.76-5.24l.57-.26.06.63c.19,1.83.44,3.47.69,4.99l.07.44-.38.12c-8.65,2.53-16.99,3.98-24.82,4.42l-1.64.12Z"/>
            <path id="gtktc" class="cls-2" d="m446.66,380.22c-.2,1.94-.45,3.88-.76,5.81.57-.19,1.07-.44,1.64-.63.51-.19,1.01-.44,1.52-.63,3.3-1.26,6.54-2.65,9.72-4.17-.19-2.27-.38-4.67-.5-7.07-1.14.76-2.34,1.52-3.41,2.15-2.59,1.58-5.37,3.1-8.21,4.55h0Zm-1.96,7.26l.13-.82c.32-1.64.63-3.91.88-6.82v-.26l.26-.12c2.84-1.45,5.68-3.03,8.34-4.67,1.33-.82,2.72-1.7,4.1-2.59l.7-.44.06.82c.12,2.84.32,5.62.57,8.21v.32l-.32.13c-3.29,1.58-6.64,3.03-10.04,4.36-.51.19-1.01.38-1.51.63-.82.31-1.64.63-2.47.95l-.7.32Z"/>
            <path id="gtktd" class="cls-2" d="m469.71,365.06c0,3.41-.12,6.76-.31,9.92,21.22-12.76,32.59-28.8,28.29-39.98-1.14-2.91-3.22-5.31-6.19-7.27,1.64,10.23-6.57,24.38-21.79,37.33Zm-1.39,11.68l.06-.88c.26-3.47.38-7.2.38-10.99v-.19l.19-.13c15.35-13.01,23.74-27.79,21.41-37.64l-.26-1.07.95.57c3.66,2.15,6.19,4.99,7.52,8.34,4.54,11.75-7.27,28.48-29.43,41.55l-.82.44Z"/>
          </g>
          <g>
            <path id="gtkte" class="cls-2" d="m468.57,321.55c8.72,0,16.04,1.45,21.41,4.29-.3-.89-.7-1.74-1.2-2.53-5.68-9.28-23.37-10.04-44.08-1.83v3.16c4.98-1.23,10.05-2.1,15.16-2.59v-.06l7.07-4.23v3.85c.57-.06,1.14-.06,1.64-.06Zm22.93,6.19l-.95-.57c-5.69-3.35-13.96-4.93-24-4.67h-.51v-3.16l-5.18,3.1v.38l-.44.06c-5.41.55-10.77,1.48-16.04,2.78l-.57.12v-5.05l.31-.12c21.28-8.46,39.6-7.64,45.6,2.08.7,1.2,1.26,2.47,1.58,3.92l.19,1.14Z"/>
            <path id="gtktf" class="cls-2" d="m437.63,324.52c-3.51,1.7-6.94,3.56-10.29,5.56.19-.06.38-.12.5-.19,3.2-1.24,6.44-2.35,9.73-3.35v-2.02h.06Zm-14.02,8.15l-.82-.76.51-.32c1.26-.82,2.34-1.52,3.35-2.15,3.65-2.19,7.4-4.22,11.24-6.06l.7-.32v4.23l-.32.12c-3.35,1.01-6.76,2.15-9.98,3.41-1.39.44-2.78,1.01-4.36,1.7l-.32.13Z"/>
          </g>
          <g>
            <path id="gtktg" class="cls-2" d="m403.4,349.59c-11.24,12.44-15.35,24.76-10.74,32.34,2.84,4.61,8.59,7.2,16.73,7.45,4.36-4.04,6.63-8.21,6.82-12.38.19-4.48-1.96-9.03-6.5-13.96-4.42-4.67-6.44-9.09-6.32-13.45Zm6.32,40.8h-.19c-8.53-.25-14.66-2.97-17.68-7.96-5.06-8.27-.63-21.16,11.75-34.48l1.01-1.08-.19,1.52c-.63,4.54,1.26,9.16,5.87,14.14,4.73,5.12,6.95,9.92,6.76,14.66-.19,4.48-2.59,8.9-7.26,13.2h-.06Z"/>
            <path id="gtkth" class="cls-2" d="m424.62,332.22l1.89,1.64-.57.32c-6.57,3.73-9.91,7.32-10.48,11.3-.57,3.85,1.51,8.15,6.25,13.14,4.3,4.48,6.44,9.28,6.25,14.27-.19,5.24-2.91,10.67-8.02,15.73,5.37-.89,11.05-2.53,16.93-4.87-1.71-14.84-1.33-34.48.82-43.95l.07-.19,6.88-4.1.13.63c3.1,12.19,3.22,30.69,2.08,43.14,2.57-1.32,5.1-2.73,7.58-4.23,1.26-.76,2.59-1.58,3.85-2.46-.57-12.89.06-25.7,1.64-32.72l.06-.19,6.88-4.1.12.63c1.77,6.95,2.72,16.8,2.72,27.79,14.78-12.76,22.86-27.1,20.65-36.75-5.56-3.22-13.64-4.8-23.37-4.61v7.07l-7.13,4.11v-10.86c-5.11.54-10.17,1.43-15.16,2.65v3.98l-7.07,4.23v-6.25c-3.18.95-6.32,2.02-9.41,3.22-1.14.44-2.27.95-3.6,1.45h0Zm-7.58,57.79l1.14-1.01c5.62-5.18,8.65-10.74,8.84-16.1.13-4.67-1.89-9.29-6-13.58-4.99-5.18-7.14-9.73-6.5-13.96.57-4.17,3.91-7.9,10.36-11.68l-2.02-1.77.69-.32c1.44-.63,2.89-1.22,4.36-1.77,3.32-1.29,6.69-2.45,10.11-3.47l.63-.19v5.87l5.18-3.1v-4.17l.38-.06c5.56-1.39,10.99-2.34,16.17-2.78l.51-.07v10.23l5.18-3.1v-7.39h.44c10.23-.25,18.69,1.39,24.51,4.8l.19.13.06.19c2.53,10.36-5.81,25.14-21.73,38.52l-.76.63v-1.01c.06-10.99-.88-20.9-2.53-27.98l-5.43,3.22c-1.52,7.01-2.15,19.77-1.58,32.53v.25l-.25.12c-1.39.95-2.78,1.83-4.1,2.65-2.74,1.66-5.55,3.22-8.4,4.67l-.76.38.07-.88c1.26-12.51,1.01-31.2-1.83-43.07l-5.43,3.22c-2.08,9.54-2.4,29.11-.69,43.83l.06.38-.32.13c-6.63,2.65-13.01,4.42-18.95,5.3l-1.58.38Z"/>
          </g>
          <path id="gtkti" class="cls-2" d="m406.18,341.63s-1.39,3.1-2.27,6.57c-.89,3.47.25,5.37,1.89,8.9,1.64,3.54,5.24,7.27,8.15,11.05,2.91,3.79,2.47,8.34,2.08,11.81-.38,3.47-4.54,7.9-4.54,7.9l-7.02,6.13s.76.06,3.92.06h3.28l1.83-.63,3.54-2.84,4.61-4.61,3.98-6.25s1.52-6,1.52-6.69c0-.76-.57-5.18-.57-5.18,0,0-2.65-4.8-3.47-6.57-.82-1.7-2.53-2.21-3.16-3.16-.63-1.01-3.66-5.11-3.66-5.11l-2.02-7.07s1.7-4.8,3.28-6.44c1.52-1.64,6.5-5.18,7.07-5.56.57-.38-.82-1.07-.82-1.07l.19-.82-2.72-2.46s-6.06,3.03-10.36,6.63c-3.16,2.65-3.92,3.98-3.92,3.98l-.82,1.45Z"/>
          <path id="gtktj" class="cls-2" d="m438.13,323.26s1.2-.51,2.91-1.26c1.7-.76,3.16-1.39,3.16-1.39l.19,8.59-6.31,3.66.06-9.6Z"/>
          <path id="gtktk" class="cls-2" d="m438.13,339.93l6.06-3.66,1.58,7.01.57,7.77.57,10.17-.06,7.64-.32,7.77-.26,3.47-.63,4.73-.44,2.53s-.89.38-3.22,1.07c-2.4.76-3.6,1.07-3.6,1.07l-.57-2.59-1.26-11.62-.19-8.27.07-10.74.63-10.42,1.07-5.94Z"/>
          <path id="gtktl" class="cls-2" d="m468.83,374.48l-.12,2.02s-2.27,1.33-4.55,2.53c-2.21,1.14-4.55,2.27-4.55,2.27l-.57-2.97-.38-8.53-.12-7.77.25-8.34.69-8.27.82-5.37,6.19-3.6,1.26,6,1.01,8.4.25,6.19.25,7.64-.13,7.77-.32,2.02Z"/>
          <path id="gtktm" class="cls-2" d="m460.3,322.43l6.19-3.92.07,10.8-6.19,3.6-.06-10.48Z"/>
        </g>
        <g>
          <path class="cls-2" d="m336.23,349.47c0,1.76-6.66,14.29-23.55,14.29h-.2c-2.99,0-5.14-2.5-3.04-2.5,5.87,0,14.2-9.55,14.2-18.75,0-1.13-.2-2.45-1.13-2.45-5.04,0-10.58,6.66-13.02,12.48-.74,2.5-1.22,4.7-1.22,6.32,0,3.77.59,3.67.59,4.7,0,.88-4.45-1.62-4.45-6.8,0-7.25,13.51-34.12,13.51-36.52,0-1.81,3.87,1.76,3.87,3.13,0,.39-3.38,7.1-6.76,14.74,1.57-1.03,3.18-1.66,4.8-1.66,2.94,0,7.29,3.57,7.29,7.54,0,4.75-2.35,9.84-5.48,13.76,6.61-.59,10.92-9.55,11.9-10.53.39-.39,2.69,1.18,2.69,2.25Zm-25.26-10.48c.93-2.15,1.76-4.31,2.69-6.32.93-2.01,1.66-3.91,2.3-5.53.68-1.62,1.22-2.94,1.57-3.97.15-.54.25-.78.39-1.13,0-.15.05-.24.05-.29s0-.05.05-.1l-.15.39c-.15.25-.25.59-.44,1.13-.34.98-.93,2.25-1.66,3.87-.74,1.62-1.47,3.48-2.4,5.48l-2.74,6.31c-.93,2.2-1.76,4.31-2.6,6.41l-1.08,2.94c-.34.98-.59,1.86-.93,2.69-.24.83-.49,1.57-.64,2.3-.2.74-.24,1.27-.39,1.81-.05.34-.1.54-.1.69-.05.2-.05.34-.05.49v.44-.44l.1-.49c0-.2.05-.39.1-.64.1-.59.24-1.18.49-1.81.15-.34.15-.69.29-1.08l.44-1.17c.54-1.71,1.27-3.53,2.11-5.63.73-2.01,1.62-4.16,2.59-6.36Zm-4.11,11.8l.1-.39q-.05.05-.05.1s-.05.15-.1.29c-.15.2-.2.54-.34.93-.15.39-.34.83-.49,1.37l-.2.78c-.05.25-.15.49-.2.83-.15.54-.24,1.08-.29,1.62-.15.54-.1,1.03-.1,1.47,0,.2.05.39.05.59,0,.15.05.29.05.44s.05.2.05.24q0,.05.05.1s-.05-.05-.05-.1v-.24c-.05-.24-.05-.64-.05-1.03l.15-1.42.29-1.62c.05-.34.15-.59.2-.83l.2-.78c.15-.54.29-.98.44-1.37.15-.39.24-.73.29-.98Zm13.9-13.81s-.05,0-.1-.05c-.05,0-.1-.05-.24-.1l-.49-.1h-.59l-.69.15c-.24.05-.44.15-.78.2-.25.15-.49.2-.74.34l-.78.39-1.42.98c-.19.15-.39.29-.59.49-.15.1-.29.24-.49.44-.39.39-.64.64-.73.78l-.2.24-.05.05.05-.05.24-.2c.15-.15.24-.24.34-.29.1-.05.25-.19.44-.39l.54-.39c.2-.15.44-.29.64-.49l.69-.44.69-.44.78-.39c.24-.15.49-.2.73-.34.24-.15.44-.2.69-.24l.69-.2c.2,0,.39-.05.54-.05h.44c.2.05.29.1.29.1h.1Zm-.05,16.84l.39-.69c.29-.44.54-.88.73-1.32.24-.44.44-.88.59-1.32.2-.39.34-.83.49-1.18.15-.39.2-.69.34-1.03.15-.34.2-.59.24-.78l.15-.54c.05-.05.05-.15.05-.2,0,.05,0,.15-.05.2-.05.15-.15.29-.2.49-.05.24-.1.44-.25.78l-.39,1.03c-.15.34-.29.78-.49,1.17l-.64,1.27c-.2.44-.44.88-.73,1.32l-.39.69-.44.64-.44.64-.49.64-.98,1.17-.98,1.03-.93.88c-.59.54-1.08.88-1.47,1.22l-.39.34-.15.15.59-.44c.2-.15.39-.29.64-.54.25-.2.49-.34.83-.68.34-.25.64-.49.98-.83l.98-1.03c.34-.39.69-.73,1.03-1.17l.49-.59.44-.69.44-.64Zm-1.18,2.4l.15-.2-.59.59-1.27,1.32-.69.69c-.2.2-.44.39-.59.59l-.44.39s-.1.1-.15.1l-.05.05.2-.15c.15-.15.29-.2.49-.34l.69-.54.69-.64c.44-.54.88-.98,1.22-1.37l.34-.49Z"/>
          <path class="cls-2" d="m362.71,350.05c-6.41,12.68-25.56,30.45-24.77,38.43.15,2.1-4.55-1.81-4.55-2.79-.2-2.01,4.94-17.28,10.18-30.31-4.16,4.41-8.13,8.42-8.96,8.42-1.91,0-5.34-2.94-5.49-4.55-.39-4.85,9.45-22.76,11.02-22.76,1.23,0,2.89,2.74,2.89,3.48,0,.68-9.16,14.98-8.76,18.31.78,0,11.56-13.36,16.6-18.8,1.13-1.91,2.01-2.99,2.6-2.99,1.18,0,4.11,2.45,3.57,3.48-3.13,3.52-11.26,19.88-13.61,29.18,4.21-5.14,10.43-11.02,16.3-21.98.64-1.18,3.92.93,2.99,2.89Zm-30.5,1.37q0-.05.05-.1s0,.05-.05.1c-.05.05-.1.1-.15.24-.15.2-.29.49-.44.88l-.54,1.22-.54,1.52-.19.78-.2.73c-.15.54-.15.98-.2,1.37v.98c.05.2.1.29.1.29v.1-.1s-.05-.15-.05-.29c0-.19-.05-.54.1-.93.05-.39.1-.83.25-1.37l.15-.74c.15-.24.1-.54.24-.78.15-.54.34-1.03.49-1.47l.49-1.32c.15-.34.24-.69.39-.88.05-.15.05-.2.1-.24Zm1.96-2.55l1.08-2.16,1.18-2.15c.34-.73.64-1.32.98-1.86l.74-1.32c.15-.15.24-.34.29-.49l-.1.1c-.05.15-.1.2-.24.34l-.83,1.27c-.34.44-.69,1.08-1.13,1.81l-.59,1.03-.59,1.08c-.39.74-.73,1.47-1.08,2.2-.2.34-.29.69-.44,1.03l-.39.93-.54,1.42c-.05.2-.1.24-.1.39-.05.05-.05.1-.05.15l.25-.49c.15-.34.29-.78.64-1.37l.93-1.91Zm-1.37,1.08c-.05.1-.05.2-.1.25l.15-.25c.15-.15.15-.29.29-.64l.44-.88c.15-.34.34-.68.49-1.08l.93-1.96c.15-.34.24-.64.39-.88l-.15.24c-.15.15-.2.39-.34.64-.15.25-.34.54-.49.88l-.49,1.03c-.2.34-.34.69-.49,1.03-.15.34-.24.69-.39.93l-.24.68Zm5.14,27.96c.1-.54.2-.98.29-1.22l.15-.49-.15.49c-.15.34-.29.64-.44,1.17l-.54,1.71-.59,1.96-.54,2.01c-.15.64-.2,1.22-.34,1.76-.1.49-.15.93-.15,1.27,0,.15.05.2.05.34l.1.1-.1-.1v-.34c0-.34.05-.74.2-1.27.1-.54.25-1.08.44-1.71l.54-2.01c.2-.73.39-1.32.54-1.96l.54-1.71Zm3.67-23.25c.39-.44.69-.93,1.03-1.27.34-.39.54-.68.69-.93.1-.15.2-.24.24-.39-.05.1-.15.2-.29.34-.2.2-.39.54-.73.88l-2.25,2.69c-.44.54-.88.98-1.27,1.42l-1.13,1.18c-.34.34-.59.64-.83.83l-.29.29s.05,0,.1-.05l.24-.24c.2-.15.54-.39.88-.73l1.18-1.18c.39-.44.83-.88,1.27-1.42l1.18-1.42Zm1.13,4.65l.73-2.2-.24.59-.59,1.62-.88,2.25c-.34.83-.59,1.67-.93,2.6l-.93,2.64c-.34.83-.54,1.62-.78,2.25l-.54,1.67-.2.59c0-.05,0-.1.05-.15.05-.15.05-.24.2-.44l.59-1.62c.54-1.32,1.13-3.09,1.76-4.9.34-.93.59-1.76.93-2.59.34-.83.59-1.57.83-2.3Zm-.29-5.09l1.22-1.27c.54-.54,1.08-1.08,1.67-1.81v-.05c.15-.34.34-.69.49-1.08l-.74.88-1.57,1.91-1.08,1.37c-.15.2-.29.24-.34.39-.05.05-.1.1-.1.15l.44-.49Zm11.51,3.04l.1-.15-.05-.05-.1.15c-.05.15-.15.25-.29.39-.2.34-.59.73-.98,1.27-.93,1.13-2.06,2.5-3.28,3.91-1.17,1.37-2.4,2.74-3.33,3.77l-1.03,1.32c-.15.15-.24.24-.29.39t-.05.1s0,.05-.05.05h.05l.1-.15.29-.34.49-.54c.2-.2.44-.34.68-.69.44-.54,1.03-1.03,1.62-1.66l1.81-2.01c.59-.74,1.18-1.37,1.71-2.11.34-.34.54-.64.78-.98.2-.34.44-.59.64-.93.39-.54.74-1.03.93-1.37l.24-.39Z"/>
        </g>
      </g>
    </g>
  </g>
</svg>