<?xml version="1.0" encoding="UTF-8"?>
<svg id="Calque_2" data-name="Calque 2" xmlns="http://www.w3.org/2000/svg" xmlns:xlink="http://www.w3.org/1999/xlink" viewBox="0 0 359.98 359.98">
  <defs>
    <style>
      .cls-1 {
        clip-path: url(#clippath);
      }

      .cls-2, .cls-3 {
        fill: url(#Dégradé_sans_nom_3);
      }

      .cls-2, .cls-4 {
        stroke-width: 0px;
      }

      .cls-4 {
        fill: #fff;
      }
    </style>
    <linearGradient id="Dégradé_sans_nom_3" data-name="Dégradé sans nom 3" x1="-35.52" y1="67.78" x2="420.33" y2="305.12" gradientUnits="userSpaceOnUse">
      <stop offset="0" stop-color="#e74655"/>
      <stop offset="1" stop-color="#7030a0"/>
    </linearGradient>
    <clipPath id="clippath">
      <circle class="cls-2" cx="179.99" cy="179.99" r="179.99"/>
    </clipPath>
  </defs>
  <g id="Calque_1-2" data-name="Calque 1">
    <g>
      <circle class="cls-3" cx="179.99" cy="179.99" r="179.99"/>
      <g class="cls-1">
        <g>
          <path class="cls-4" d="m155.94,193.38l-3.61,7.42c1.82,3.71,4.12,7.47,6.89,11.22l3.81-7.83c-2.75-3.61-5.13-7.21-7.08-10.81Z"/>
          <path class="cls-4" d="m169.78,361.97c-3.61,1.35-7.21,2.56-10.79,3.63l-3.35-8.66c3.58-1.06,7.2-2.28,10.78-3.66l3.37,8.69Z"/>
          <path class="cls-4" d="m188.69,113.4l2.54,7.33c2.8-2.98,5.26-6.06,7.26-9.15l-2.41-6.97c-2.1,3.01-4.58,5.94-7.39,8.79Z"/>
          <path class="cls-4" d="m184.18,355.83c-3.37,1.63-6.85,3.16-10.42,4.59l-3.37-8.69c3.58-1.38,7.07-2.93,10.44-4.54l3.35,8.65Z"/>
          <path class="cls-4" d="m200.95,107.36c3.65-7.03,4.92-14.02,3.24-20.42-.86,4.53-2.74,9.18-5.55,13.76l2.31,6.66Z"/>
          <path class="cls-4" d="m149.25,172.52c-2.72,6.92-2.25,14.9.9,23.23l3.44-7.08c-2.49-5.54-3.97-10.97-4.33-16.15Z"/>
          <path class="cls-4" d="m128.36,146.45l2.64,7.6c3.13-.8,6.28-1.74,9.46-2.8l-2.65-7.64c-3.14,1.09-6.32,2.04-9.44,2.83Z"/>
          <path class="cls-4" d="m166.03,130.87l2.62,7.55c2.98-1.77,5.83-3.63,8.5-5.57l-2.61-7.52c-2.7,1.95-5.54,3.74-8.51,5.54Z"/>
          <path class="cls-4" d="m154.85,366.77c-.68.18-1.35.36-2.02.52-.67.18-1.34.34-2.02.5-.54.15-1.06.26-1.6.39-.8.18-1.6.36-2.38.54-1.06.23-2.12.44-3.18.64l-3.34-8.61c3.66-.72,7.39-1.61,11.18-2.62l3.34,8.65Z"/>
          <path class="cls-4" d="m177.67,123.08l2.6,7.49c2.91-2.23,5.6-4.53,8.04-6.9l-2.56-7.39c-2.49,2.34-5.19,4.62-8.09,6.81Z"/>
          <path class="cls-4" d="m162.76,132.75c-2.83,1.56-5.81,3.08-8.87,4.53l2.64,7.6c3.06-1.47,6.02-2.96,8.86-4.56l-2.62-7.57Z"/>
          <path class="cls-4" d="m54.08,138.92c2.65,6.07,7.96,10.78,15.17,14.05l-2.28-6.63c-5.06-1.91-9.41-4.4-12.89-7.42Z"/>
          <path class="cls-4" d="m114.97,149.29l2.62,7.57c3.21-.49,6.48-1.14,9.78-1.9l-2.64-7.59c-3.31.75-6.56,1.4-9.77,1.92Z"/>
          <path class="cls-4" d="m101.14,150.75l2.6,7.52c3.29-.11,6.68-.42,10.13-.88l-2.62-7.55c-3.4.47-6.79.78-10.11.91Z"/>
          <path class="cls-4" d="m198.06,348.31c-3.19,1.97-6.56,3.83-10.03,5.62l-3.35-8.65c.94-.49,1.87-.98,2.8-1.48,1.25-.67,2.47-1.35,3.68-2.04,1.21-.68,2.39-1.37,3.57-2.07l1.47,3.79,1.87,4.82Z"/>
          <path class="cls-4" d="m71.41,147.82l2.39,6.94c3.48,1.19,7.29,2.12,11.38,2.74l-2.52-7.33c-3.99-.54-7.75-1.32-11.25-2.35Z"/>
          <path class="cls-4" d="m86.71,150.57l2.56,7.37c3.39.37,6.92.52,10.6.46l-2.61-7.49c-3.61.08-7.15-.03-10.55-.34Z"/>
          <path class="cls-4" d="m69.68,351.33c3.31,6.87,9.64,12.08,18.09,15.55l-2.91-7.54c-5.91-1.97-11.02-4.67-15.17-8.01Z"/>
          <path class="cls-4" d="m211.31,339.22c-.18.15-.37.29-.55.42h-.02c-1.14.91-2.3,1.77-3.5,2.62-.26.2-.52.39-.8.57-.37.28-.73.52-1.11.78h-.02c-.59.41-1.17.81-1.77,1.2-.59.41-1.2.8-1.81,1.19l-.98-2.52-1.64-4.27-.7-1.82c3.37-2.18,6.56-4.38,9.57-6.74l3.32,8.56Z"/>
          <path class="cls-4" d="m141.32,142.4l2.64,7.64c3.14-1.12,6.2-2.35,9.17-3.65l-2.62-7.59c-2.96,1.3-6.04,2.51-9.18,3.6Z"/>
          <path class="cls-4" d="m272.78,267.13c4.59-.13,9-.64,13.04-1.5l3.63-7.47c-4.05.73-8.37,1.09-12.88,1.12l-3.79,7.85Z"/>
          <path class="cls-4" d="m291.15,264.23c8.48-2.7,15.06-7.24,18.82-13.68-4.3,2.93-9.49,5.13-15.37,6.54l-3.45,7.13Z"/>
          <path class="cls-4" d="m330.71,222.75c-.36-6.14-2.04-12.49-4.95-18.82-.78-1.84-1.71-3.7-2.64-5.32-2.17-3.96-4.75-7.91-7.7-11.76-.96-1.25-2.04-2.59-3.09-3.83-2.59-3.11-5.49-6.22-8.58-9.2-1.14-1.12-2.31-2.2-3.39-3.11-2.64-2.43-5.58-4.88-9.25-7.72-1.19-.93-2.38-1.81-3.63-2.72-2.9-2.08-6.19-4.28-9.8-6.54l-3.65-2.18c-3.42-2.04-6.84-3.88-10.06-5.44-.52-.29-1.06-.55-1.61-.83l-.46-.23c-.72-.36-1.45-.7-2.04-.94-3.71-1.76-7.28-3.32-10.66-4.62l-4.02-1.53c-4.07-1.45-7.81-2.67-11.19-3.61l-.91-.26c-1.14-.31-2.25-.64-3.26-.88-4.02-1.06-7.98-1.9-11.67-2.49-1.56-.29-3.09-.54-4.69-.75-4.53-.62-8.65-.98-12.5-1.07-.73-.03-1.55-.06-2.38-.08,2.8-2.93,5.26-5.89,7.28-8.78,1.16-1.61,2.15-3.13,2.88-4.41,3.35-5.49,5.55-11.04,6.54-16.48,1.12-6.19.73-12.13-1.19-17.65l-3.84-11.1c-1.9-5.52-5.26-10.42-9.96-14.57-4.12-3.66-9.25-6.66-15.17-8.89-1.55-.62-3.32-1.22-5.13-1.71-3.83-1.12-7.98-1.99-12.41-2.59-1.38-.16-2.88-.33-4.25-.44-2.85-.28-5.84-.41-9.18-.41-.72,0-1.45,0-2.17.02-1.37.02-2.77.07-4.05.16-3.13.11-6.46.41-10.81.96-1.12.16-2.25.33-3.34.5l-.6.08c-3.32.55-6.77,1.24-10.35,2.07l-3.66.91c-3.32.83-6.66,1.84-9.8,2.93-.47.15-.98.31-1.5.49l-.63.21c-.64.23-1.27.46-1.73.64-3.19,1.12-6.35,2.36-9.64,3.81l-3.57,1.6c-3.34,1.58-6.37,3.13-9.22,4.71-1.22.65-2.39,1.33-3.47,1.97-3.14,1.86-6.19,3.83-8.94,5.81-1.17.8-2.34,1.63-3.4,2.46-3.04,2.26-5.97,4.74-8.69,7.31l-.46.42c-.91.86-1.87,1.74-2.74,2.65-3.06,3.14-5.78,6.38-8.12,9.65-1.11,1.56-2.05,3-2.87,4.36-3.32,5.5-5.5,11.07-6.5,16.53-1.14,6.14-.73,12.08,1.17,17.63l3.84,11.1c1.92,5.54,5.28,10.45,9.98,14.6,4.09,3.61,9.25,6.61,15.26,8.89,1.32.52,2.87,1.03,5.03,1.69,3.81,1.11,7.96,1.99,12.36,2.57,1.68.21,3.32.36,4.3.42,2.88.28,5.89.41,9.22.41.7,0,1.42-.02,2.13-.02,1.38-.02,2.78-.08,4.07-.16,3.47-.15,7.1-.47,10.79-.98,1.24-.16,2.44-.36,3.65-.54l.31-.05c3.29-.54,6.76-1.22,10.32-2.05l3.65-.91c2.34-.6,4.74-1.29,7.13-2.05l-1.4,2.91c-2.8,5.75-4.01,12.16-3.58,19.08.36,6.02,2.05,12.39,4.98,18.92.7,1.58,1.55,3.3,2.62,5.26,2.15,3.91,4.74,7.86,7.72,11.77.86,1.11,1.84,2.31,3.08,3.76,2.61,3.13,5.52,6.24,8.63,9.22,1.17,1.14,2.31,2.2,3.34,3.09.31.29.62.57.93.85-1.81.23-3.7.52-5.73.85-1.55.26-3.04.54-4.53.85-3.5.68-7.34,1.58-11.8,2.77l-4.18,1.21c-3.81,1.14-7.59,2.41-11.09,3.76-.67.23-1.37.49-2.04.75l-.67.26c-.6.23-1.2.47-1.76.73-3.47,1.35-7.1,2.93-10.84,4.72l-3.94,1.95c-3.68,1.92-7.2,3.87-10.49,5.84l-.31.2c-1.19.72-2.34,1.42-3.53,2.18-3.81,2.44-7.2,4.82-9.93,6.98-1.25.91-2.54,1.9-3.84,2.98-3.44,2.78-6.66,5.71-9.52,8.63-1.43,1.4-2.59,2.57-3.6,3.71-3.39,3.76-6.37,7.55-8.84,11.31-1.11,1.68-2.13,3.39-3.09,5.1-3.55,6.43-5.8,12.8-6.66,18.92-1.03,6.95-.34,13.58,2.04,19.72l4.9,12.62c2.34,6.12,6.3,11.49,11.75,15.97,4.75,3.91,10.7,7.1,17.68,9.46,1.73.59,3.65,1.14,5.7,1.66,1.07.29,2.17.54,3.26.78-.02.03-.03.08-.03.11-1.16.86-2.25,1.71-3.26,2.54-5.6,4.69-10.01,9.82-13.07,15.25-3.45,6.14-5.21,12.57-5.21,19.11v13.56c0,6.53,1.76,12.96,5.21,19.11,3.03,5.37,7.44,10.48,13.09,15.21,1.6,1.32,3.17,2.52,4.71,3.6,3.68,2.64,7.81,5.13,12.36,7.42,1.19.59,2.46,1.17,3.73,1.73l.81.36c3.91,1.76,7.98,3.32,12.05,4.61,1.63.55,3.14,1.01,4.54,1.38,3.66,1.12,7.68,2.12,11.97,2.98,1.48.29,2.98.59,4.46.83,3.52.62,7.31,1.14,12,1.68l4.31.37c3.88.33,7.83.49,11.75.5.77.05,1.56.05,2.38.05s1.61,0,2.38-.05c3.91-.02,7.86-.18,11.8-.5l4.41-.41c4.49-.49,8.24-1.01,11.79-1.63,1.55-.26,3.04-.55,4.54-.86,4.71-.98,8.5-1.92,11.82-2.93,1.3-.34,2.72-.77,4.58-1.38,4.12-1.3,8.19-2.87,12.1-4.62,1.53-.68,3.08-1.4,4.57-2.15,4.49-2.23,8.65-4.71,12.24-7.31,1.76-1.21,3.45-2.51,4.8-3.7,5.63-4.62,10.05-9.74,13.12-15.19,1.63-2.93,2.9-5.91,3.74-8.91,1.19-.88,2.28-1.73,3.21-2.54,5.65-4.67,10.06-9.78,13.07-15.17,3.47-6.12,5.23-12.55,5.23-19.13v-13.55c0-6.58-1.76-13.01-5.21-19.1-3.06-5.45-7.44-10.57-12.96-15.14-1.58-1.35-3.22-2.62-4.84-3.73-3.63-2.59-7.78-5.06-12.34-7.39-1.6-.78-3.14-1.5-4.56-2.13-3.92-1.76-7.98-3.32-12.03-4.61-1.69-.57-3.22-1.03-4.56-1.38-3.42-1.03-7.21-1.97-11.95-2.96-.1-.02-.18-.03-.26-.07.42-.44.86-.9,1.27-1.35,3.44-3.78,6.4-7.59,8.76-11.23,1.21-1.74,2.31-3.55,3.16-5.16,3.55-6.35,5.83-12.72,6.72-18.89,1.03-6.95.34-13.59-2.04-19.72l-.8-2.08c1.12.21,2.28.39,3.4.54,4.31.6,8.56.96,12.63,1.09,1.24.03,2.49.05,3.71.05h1.19c5-.03,9.7-.44,13.89-1.19,2.1-.33,4.14-.75,5.81-1.2,6.95-1.69,13.01-4.3,18.01-7.77,5.67-3.92,9.96-8.84,12.76-14.62l5.78-11.89c2.82-5.81,4.02-12.24,3.58-19.08Zm-10.18,15.89l-5.78,11.89c-2.3,4.72-5.83,8.66-10.35,11.8-4.33,3-9.59,5.21-15.56,6.66-1.66.46-3.4.81-5.16,1.07-4.05.72-8.35,1.07-12.86,1.11-1.5.02-3.06,0-4.61-.05-3.84-.11-7.8-.46-11.84-1.03-1.43-.18-2.85-.41-4.3-.7-3.7-.59-7.38-1.4-11.17-2.36-.26-.07-.54-.13-.8-.21.34.68.64,1.37.91,2.08l4.88,12.63c1.95,5.03,2.44,10.44,1.63,16.02-.78,5.34-2.78,10.84-5.88,16.35-.81,1.55-1.77,3.11-2.8,4.61-2.3,3.55-5.01,7.03-8.14,10.45-1.04,1.14-2.15,2.3-3.27,3.42-2.64,2.69-5.52,5.29-8.6,7.81,3.6.42,7.13.9,10.53,1.48,1.45.26,2.85.52,4.27.81,3.94.81,7.7,1.71,11.38,2.83,1.45.37,2.87.81,4.27,1.29,3.99,1.27,7.78,2.73,11.38,4.35,1.45.65,2.91,1.33,4.28,2.02,4.14,2.1,7.95,4.36,11.36,6.79,1.5,1.03,2.95,2.15,4.28,3.31,4.87,4.02,8.73,8.47,11.36,13.17,2.78,4.92,4.28,10.13,4.28,15.52v13.55c0,5.39-1.5,10.62-4.28,15.53-2.64,4.71-6.5,9.1-11.36,13.12-1.34,1.16-2.78,2.26-4.28,3.29-.23.18-.47.34-.72.5-.67,3.34-1.92,6.59-3.68,9.72-2.65,4.71-6.5,9.1-11.38,13.12-1.32,1.16-2.78,2.28-4.28,3.31-3.42,2.47-7.21,4.74-11.36,6.79-1.37.68-2.82,1.37-4.28,2.02-3.58,1.61-7.39,3.08-11.36,4.35-1.42.47-2.83.91-4.28,1.29-3.68,1.12-7.44,2.02-11.38,2.83-1.4.29-2.82.55-4.27.8-3.68.65-7.49,1.16-11.38,1.6-1.42.13-2.87.24-4.27.37-3.73.31-7.54.47-11.38.47-.68.05-1.42.05-2.13.05s-1.47,0-2.15-.05c-3.84,0-7.65-.16-11.36-.47-1.42-.13-2.87-.24-4.28-.37-3.89-.44-7.7-.94-11.38-1.6-1.45-.24-2.87-.5-4.27-.8-3.89-.78-7.7-1.71-11.38-2.83-1.45-.37-2.87-.81-4.27-1.29-3.99-1.27-7.78-2.73-11.38-4.35-1.45-.65-2.91-1.29-4.28-1.97-4.14-2.1-7.95-4.36-11.36-6.81-1.5-1.06-2.95-2.18-4.28-3.29-4.87-4.07-8.73-8.47-11.38-13.17-2.77-4.92-4.27-10.13-4.27-15.52v-13.56c0-5.39,1.5-10.6,4.27-15.52,2.65-4.7,6.51-9.15,11.38-13.22,1.34-1.11,2.78-2.21,4.28-3.29.21-.15.41-.29.62-.44.03-.03.08-.05.11-.08.06-.31.13-.6.21-.91.07-.28.13-.57.21-.85.72-2.69,1.81-5.31,3.24-7.85.11-.21.23-.41.37-.62-4.2-.46-8.17-1.16-11.9-2.12-1.77-.46-3.53-.96-5.18-1.51-6.01-2.04-11.19-4.75-15.35-8.17-4.36-3.58-7.65-7.91-9.59-12.94l-4.9-12.63c-1.94-5.03-2.43-10.44-1.61-16.02.77-5.34,2.75-10.88,5.83-16.43.85-1.51,1.79-3.08,2.8-4.61,2.31-3.52,5.05-7,8.16-10.45,1.03-1.14,2.15-2.26,3.27-3.37,2.77-2.82,5.8-5.55,9.04-8.19,1.14-.94,2.31-1.86,3.52-2.73,3.03-2.36,6.25-4.61,9.59-6.74,1.22-.78,2.44-1.53,3.7-2.3,3.21-1.92,6.56-3.78,10.05-5.58,1.27-.64,2.57-1.27,3.84-1.9,3.35-1.61,6.85-3.16,10.44-4.54.62-.29,1.3-.55,1.99-.81.67-.26,1.35-.52,2-.73,3.58-1.38,7.2-2.61,10.78-3.66,1.37-.39,2.77-.8,4.12-1.19,3.79-1.01,7.52-1.9,11.18-2.62,1.45-.29,2.85-.57,4.28-.8,3.96-.65,7.8-1.17,11.62-1.47,1.5-.18,2.96-.28,4.44-.36,2.82-.15,5.58-.21,8.3-.16-1.22-.81-2.41-1.64-3.58-2.49-1.16-.85-2.3-1.66-3.4-2.52-3.08-2.34-6.02-4.79-8.78-7.33-1.11-.96-2.17-1.94-3.21-2.95-2.93-2.82-5.65-5.72-8.11-8.66-1.01-1.19-2-2.38-2.91-3.55-2.75-3.61-5.11-7.21-7.08-10.81-.86-1.58-1.66-3.17-2.34-4.7-2.54-5.65-4.05-11.14-4.36-16.4-.34-5.5.55-10.71,2.85-15.43l5.78-11.88c1.68-3.47,4.01-6.48,6.92-9.08-.42.21-.85.41-1.27.62-1.12.5-2.28,1.03-3.39,1.53-2.96,1.29-6.04,2.51-9.18,3.6-.55.23-1.16.44-1.74.65-.6.19-1.19.41-1.76.57-3.16,1.09-6.32,2.04-9.46,2.83-1.19.29-2.41.6-3.61.9-3.3.77-6.56,1.42-9.75,1.94-1.27.2-2.51.39-3.74.55-3.4.47-6.79.78-10.11.91-1.3.1-2.57.15-3.87.16-3.61.07-7.15-.03-10.55-.36-1.37-.1-2.74-.21-4.05-.39-3.99-.54-7.75-1.32-11.25-2.34-1.53-.46-3.03-.94-4.43-1.48-5.14-1.95-9.56-4.46-13.06-7.55-3.66-3.24-6.38-7.1-7.91-11.51l-3.84-11.1c-1.51-4.41-1.77-9.1-.9-13.92.85-4.61,2.74-9.35,5.57-14.05.77-1.29,1.64-2.6,2.57-3.91,2.12-2.96,4.59-5.91,7.39-8.79.93-.96,1.94-1.89,2.95-2.83,2.47-2.34,5.18-4.62,8.08-6.79,1.03-.8,2.05-1.55,3.14-2.26,2.69-1.95,5.54-3.81,8.51-5.55,1.06-.64,2.15-1.25,3.27-1.87,2.82-1.56,5.8-3.06,8.86-4.53,1.12-.5,2.28-1.01,3.4-1.51,2.96-1.3,6.02-2.52,9.18-3.61.54-.23,1.14-.44,1.74-.65.59-.2,1.19-.41,1.76-.57,3.14-1.09,6.32-2.04,9.44-2.83,1.19-.29,2.43-.6,3.61-.9,3.31-.76,6.58-1.42,9.77-1.94,1.25-.2,2.49-.39,3.73-.55,3.45-.44,6.79-.78,10.13-.91,1.29-.1,2.57-.15,3.86-.16,3.61-.07,7.15.03,10.55.36,1.38.11,2.77.26,4.07.42,4.01.54,7.75,1.32,11.25,2.34,1.51.42,3.03.91,4.43,1.48,5.15,1.92,9.56,4.46,13.06,7.57,3.68,3.24,6.38,7.08,7.91,11.49l3.84,11.1c1.53,4.41,1.77,9.12.9,13.92-.83,4.61-2.74,9.31-5.58,13.99-.77,1.32-1.64,2.64-2.57,3.91-2.1,3.01-4.58,5.94-7.39,8.79-.93.96-1.92,1.92-2.93,2.87-2.49,2.34-5.19,4.62-8.08,6.8-1.03.78-2.07,1.53-3.14,2.26-1.45,1.06-2.95,2.05-4.48,3.04,1.34-.44,2.72-.83,4.14-1.19,1.63-.41,3.37-.77,5.14-1.06,4.04-.68,8.34-1.06,12.88-1.12,1.48-.02,3.03.03,4.57.1,3.84.1,7.8.46,11.84,1.01,1.45.2,2.87.42,4.3.7,3.7.59,7.44,1.38,11.19,2.38,1.35.33,2.7.72,4.09,1.11,3.5.99,7.07,2.17,10.65,3.45,1.3.49,2.62.99,3.92,1.48,3.39,1.32,6.79,2.8,10.18,4.43.62.26,1.25.57,1.89.88.63.31,1.27.62,1.86.94,3.37,1.64,6.64,3.42,9.77,5.26,1.19.72,2.41,1.45,3.6,2.17,3.22,2.02,6.35,4.1,9.3,6.22,1.17.85,2.3,1.68,3.4,2.54,3.11,2.39,6.02,4.79,8.78,7.33,1.11.94,2.17,1.92,3.21,2.95,2.93,2.82,5.65,5.72,8.11,8.66,1.01,1.19,1.99,2.39,2.9,3.58,2.75,3.6,5.13,7.21,7.08,10.81.88,1.53,1.68,3.13,2.34,4.71,2.57,5.6,4.05,11.14,4.36,16.39.36,5.5-.55,10.71-2.85,15.43Z"/>
          <path class="cls-4" d="m232.8,296.19c-.77,1.68-1.64,3.35-2.65,4.98-2.17,3.63-4.88,7.29-7.98,10.89-1.03,1.16-2.13,2.33-3.24,3.48-2.72,2.8-5.73,5.57-8.99,8.3-1.14.94-2.3,1.86-3.5,2.78-3.01,2.3-6.2,4.59-9.59,6.72-1.2.8-2.43,1.58-3.7,2.31-2.21,1.35-4.49,2.65-6.85,3.94h-.02c-.2.11-.41.23-.62.34-.85.44-1.69.9-2.54,1.33-1.27.64-2.52,1.25-3.84,1.9-1.27.62-2.57,1.22-3.89,1.81-.78.36-1.56.7-2.36,1.03-.49.23-.99.44-1.51.65-.88.37-1.76.73-2.65,1.09l-3.99,1.55c-3.6,1.35-7.21,2.57-10.79,3.63-1.35.39-2.77.8-4.12,1.19-3.79,1.01-7.52,1.9-11.19,2.64-1.45.28-2.85.55-4.3.73-.41.08-.83.15-1.24.21-.02,0-.02.02-.02.02,0,0,0-.02-.02-.02-1.17.21-2.34.39-3.5.54-.52.08-1.03.15-1.53.21-1.68.21-3.34.38-4.98.49-.11.02-.23.02-.34.03-1.51.13-3.01.24-4.46.31-4.25.18-8.34.15-12.23-.08-1.61-.11-3.21-.23-4.74-.41-4.75-.55-9.18-1.45-13.24-2.67-1.86-.52-3.61-1.17-5.32-1.89-6.71-2.77-12.08-6.59-15.65-11.54-1.4-1.84-2.51-3.86-3.34-6.01l-.72-1.84c.02-.08.03-.15.05-.24-2.2-7.31-1.03-15.42,2.9-23.67.76-1.68,1.63-3.34,2.64-5.01,2.17-3.63,4.84-7.28,7.99-10.84,1.03-1.17,2.12-2.38,3.24-3.5,2.7-2.83,5.71-5.6,8.99-8.29,1.11-.94,2.28-1.9,3.5-2.78,3-2.34,6.2-4.61,9.57-6.77,1.21-.8,2.41-1.58,3.7-2.31,3.17-1.95,6.54-3.81,10.01-5.62,1.27-.64,2.59-1.27,3.86-1.9,3.35-1.63,6.84-3.16,10.42-4.58l3.99-1.55c3.6-1.35,7.21-2.57,10.79-3.63,1.4-.41,2.77-.8,4.12-1.19,3.79-1.01,7.52-1.9,11.2-2.59,1.45-.29,2.85-.55,4.28-.78,3.96-.67,7.85-1.17,11.64-1.43,1.48-.18,2.98-.24,4.46-.31,4.23-.23,8.32-.19,12.23.08.39.02.8.03,1.19.07h.11s.02.02.02.02h.03l2.44,1.47c3.13,1.84,6.4,3.61,9.77,5.24.59.34,1.22.65,1.86.96.63.31,1.29.62,1.9.86,3.37,1.64,6.77,3.11,10.18,4.43,1.29.49,2.62,1.01,3.91,1.5,2.72.96,5.42,1.87,8.08,2.69.02.03.03.05.03.07.18.24.34.5.5.76s.31.52.46.78c.13.21.24.42.36.64.2.34.37.68.54,1.04.08.06.13.1.2.16l.72,1.82c.83,2.17,1.37,4.38,1.58,6.69.68,6.06-.7,12.5-3.81,19.06Z"/>
          <path class="cls-4" d="m197.11,96.28c-.73,1.43-1.53,2.83-2.46,4.22-2,3.09-4.46,6.17-7.26,9.18-.46.49-.93.98-1.42,1.45-.47.5-.98.99-1.48,1.48-2.46,2.34-5.15,4.64-8.06,6.9-1.01.78-2.05,1.53-3.13,2.3-2.67,1.91-5.5,3.79-8.51,5.54-1.06.65-2.13,1.3-3.27,1.89-2.82,1.6-5.78,3.09-8.84,4.56-1.12.5-2.25,1.03-3.4,1.53-2.96,1.3-6.02,2.52-9.17,3.65l-3.5,1.22c-3.17,1.06-6.33,2-9.46,2.8-1.2.29-2.43.6-3.61.9-3.32.77-6.58,1.42-9.77,1.94-1.27.2-2.49.39-3.75.5-3.44.49-6.82.8-10.13.93-1.3.05-2.62.11-3.88.11-3.68.03-7.21-.11-10.58-.44-1.38-.15-2.77-.31-4.1-.5-4.09-.62-7.9-1.55-11.38-2.74-1.58-.5-3.09-1.12-4.54-1.79-2.88-1.3-5.47-2.85-7.68-4.62-.31-.26-.62-.5-.93-.76-.34-.29-.68-.6-1.01-.91-.88-.83-1.68-1.69-2.41-2.61-.41-.52-.81-1.06-1.17-1.61-.29-.41-.57-.83-.81-1.27-.5-.85-.96-1.71-1.35-2.62-.2-.46-.37-.93-.54-1.4l-.55-1.61c.02-.08.03-.13.05-.21-1.68-6.41-.41-13.4,3.24-20.43.18-.36.37-.72.57-1.07.38-.7.78-1.42,1.22-2.12.21-.36.44-.7.67-1.06,1.99-3.09,4.41-6.15,7.26-9.15.46-.49.93-.99,1.42-1.48.24-.24.49-.49.75-.73.24-.24.49-.5.75-.73,2.43-2.38,5.11-4.67,8.04-6.9.49-.39.99-.78,1.51-1.16.54-.39,1.06-.77,1.61-1.14,2.65-1.94,5.5-3.79,8.5-5.57,1.07-.65,2.13-1.3,3.27-1.89,2.82-1.6,5.78-3.09,8.86-4.56,1.12-.5,2.26-1.01,3.39-1.51,2.96-1.3,6.04-2.52,9.17-3.65l3.52-1.22c3.16-1.06,6.32-1.99,9.46-2.8,1.22-.31,2.41-.6,3.61-.9,3.3-.77,6.56-1.42,9.77-1.9,1.27-.2,2.49-.39,3.73-.54,3.45-.46,6.84-.77,10.14-.88,1.29-.1,2.59-.11,3.87-.13,3.66-.05,7.21.1,10.58.46,1.37.11,2.77.29,4.1.5,4.05.59,7.9,1.5,11.36,2.69,1.6.54,3.11,1.16,4.56,1.84,7.21,3.26,12.52,7.98,15.17,14.03.07.07.11.08.16.15l.57,1.61c.65,1.89,1.04,3.83,1.16,5.84.41,5.27-1.01,10.83-3.89,16.41Z"/>
          <path class="cls-4" d="m223.81,316.33l3.22,8.32c3.13-3.53,5.83-7.2,7.99-10.84l-3.06-7.93c-2.3,3.55-5.03,7.03-8.16,10.45Z"/>
          <path class="cls-4" d="m223.81,328.15c-2.7,2.85-5.71,5.62-8.99,8.3l-3.3-8.53c3.24-2.64,6.27-5.37,9.04-8.17l3.26,8.4Z"/>
          <path class="cls-4" d="m237.7,308.84c3.91-8.25,5.08-16.36,2.88-23.69-.8,5.28-2.77,10.71-5.81,16.12l2.93,7.57Z"/>
          <path class="cls-4" d="m289.96,389.79v1.97c0,2.31-.29,4.58-.93,6.81-1.55,5.89-5.18,11.41-10.44,16.41-1.33,1.29-2.74,2.52-4.28,3.68-.05.03-.08.07-.13.1-.33.26-.67.52-1.01.76-.16.13-.33.26-.5.38-.6.44-1.2.86-1.82,1.29-.37.26-.77.52-1.17.78-2.1,1.38-4.36,2.7-6.72,3.96-1.37.73-2.83,1.42-4.28,2.1-3.55,1.63-7.36,3.13-11.38,4.49-1.4.47-2.82.9-4.27,1.32-3.63,1.07-7.44,2.05-11.38,2.83-1.42.29-2.82.59-4.27.8-3.68.68-7.49,1.2-11.38,1.63-1.42.13-2.82.26-4.28.39-3.71.29-7.52.47-11.36.5h-4.28c-3.84-.03-7.65-.21-11.38-.5-1.4-.13-2.87-.26-4.26-.39-3.89-.42-7.7-.94-11.38-1.58-1.45-.26-2.87-.5-4.26-.85-3.94-.78-7.75-1.71-11.38-2.83-1.45-.42-2.91-.85-4.28-1.32-4.02-1.37-7.82-2.87-11.36-4.49-1.47-.68-2.91-1.37-4.28-2.1-4.23-2.21-8.04-4.66-11.38-7.26-1.53-1.16-2.95-2.39-4.27-3.68-5.26-5-8.89-10.52-10.44-16.41-.13-.46-.24-.93-.34-1.38-.06-.26-.11-.52-.16-.78-.02-.07-.03-.13-.03-.2-.13-.7-.23-1.4-.28-2.12-.03-.31-.07-.6-.08-.91-.03-.47-.05-.94-.05-1.42v-1.97c.05-.08.08-.13.13-.21.03-.47.1-.94.16-1.42v-.05h.02v-.02c.05-.34.1-.68.16-1.03.05-.29.1-.59.18-.88.13-.72.33-1.43.54-2.13.05-.2.11-.37.18-.57.11-.36.23-.72.37-1.07.33-.86.68-1.73,1.11-2.57.19-.42.41-.85.65-1.27.23-.44.49-.88.75-1.32.26-.42.52-.85.8-1.27.39.02.8.03,1.19.05,2.75.16,5.55.2,8.42.11,1.24-.02,2.49-.07,3.76-.15,1.48-.07,2.96-.18,4.46-.34,3.83-.29,7.72-.8,11.62-1.48.86-.15,1.69-.31,2.57-.46.02-.02.05-.02.07-.02h.02c.37-.08.75-.16,1.12-.24.54-.11,1.09-.24,1.64-.34.38-.08.75-.16,1.14-.21.05-.02.08-.02.13-.03.03,0,.05-.02.08-.02.75-.16,1.51-.33,2.28-.5,1.38-.31,2.78-.65,4.18-1.03.73-.18,1.48-.37,2.21-.57,1.37-.39,2.77-.8,4.14-1.19,3.48-1.04,7.03-2.21,10.55-3.58.08-.02.15-.05.23-.08.65-.21,1.32-.47,2-.73.68-.26,1.35-.52,1.97-.81,3.6-1.38,7.08-2.91,10.44-4.54,1.27-.62,2.59-1.27,3.86-1.9,3.47-1.79,6.84-3.65,10.03-5.58,1.27-.75,2.49-1.5,3.7-2.3,3.03-1.95,5.91-3.92,8.65-6.02,1.38.13,2.72.24,4.05.37,3.89.42,7.7.94,11.38,1.63,1.45.26,2.85.5,4.27.81,3.94.81,7.75,1.74,11.38,2.87,1.45.37,2.87.85,4.27,1.32,4.02,1.32,7.83,2.82,11.38,4.49,1.45.64,2.91,1.37,4.28,2.08,4.18,2.18,8.03,4.62,11.36,7.23,1.55,1.2,2.95,2.44,4.28,3.73,6.63,6.28,10.65,13.43,11.25,21.03.03.08.08.13.11.21Z"/>
          <path class="cls-4" d="m256.24,266.23c4.09.55,8.08.86,11.89.91l3.84-7.91c-3.84-.11-7.8-.46-11.82-1.03l-3.91,8.03Z"/>
          <path class="cls-4" d="m240.74,263.24c3.79.96,7.52,1.76,11.18,2.33l3.92-8.06c-3.7-.59-7.39-1.4-11.19-2.36l-3.92,8.09Z"/>
          <path class="cls-4" d="m227.9,254.77l-1.87,3.84-.05.1c.1.03.2.07.29.1t.03.02c1.45.52,2.88,1.01,4.31,1.48.6.19,1.2.39,1.79.57.85.28,1.68.52,2.51.75.57.18,1.16.34,1.73.5l3.94-8.09c-3.5-1.01-7.07-2.18-10.65-3.47l-2.04,4.2Z"/>
          <path class="cls-4" d="m222.56,256.2l1.82-3.76,1.63-3.35c-3.39-1.32-6.81-2.78-10.18-4.43l-1.56,3.21-1.77,3.68h-.02l-.62,1.29c3.4,1.61,6.81,3.08,10.19,4.4l.5-1.03Z"/>
          <path class="cls-4" d="m199.02,244.38l-.65,1.34c1.12.67,2.28,1.33,3.45,1.97.57.33,1.16.65,1.74.96.59.31,1.17.62,1.76.94.03,0,.05.02.07.02.91.47,1.82.94,2.74,1.4l.33-.67,1.82-3.75,1.82-3.76c-3.39-1.63-6.64-3.4-9.78-5.26l-3.29,6.8Z"/>
          <path class="cls-4" d="m198.72,235.43c-3.22-2.04-6.35-4.1-9.3-6.24l-3.94,8.11c2.93,2.17,6.06,4.23,9.28,6.27l3.96-8.14Z"/>
          <path class="cls-4" d="m317.61,234.85c0,.1.02.16.02.24l-.85,1.73c-.98,2.04-2.2,3.89-3.71,5.57-3.86,4.51-9.39,7.8-16.15,9.95-1.71.57-3.47,1.06-5.31,1.42-4.04.86-8.45,1.37-13.07,1.53-1.51.05-3.08.03-4.64.02-3.81-.1-7.78-.41-11.88-.91-1.45-.2-2.87-.41-4.31-.65-3.65-.62-7.41-1.37-11.19-2.38-1.37-.34-2.74-.67-4.09-1.11-3.52-.96-7.08-2.13-10.68-3.42-1.29-.49-2.57-.98-3.91-1.48-3.39-1.32-6.8-2.8-10.19-4.4l-3.76-1.82c-3.35-1.68-6.61-3.45-9.75-5.29-1.17-.72-2.39-1.45-3.58-2.17-3.22-2.02-6.35-4.1-9.3-6.22-1.17-.85-2.3-1.68-3.39-2.57-3.13-2.36-6.07-4.8-8.78-7.33-1.09-.99-2.18-1.99-3.19-2.98-2.95-2.91-5.63-5.84-8.06-8.78-.99-1.22-1.97-2.44-2.87-3.66-2.77-3.76-5.06-7.52-6.87-11.22-.86-1.68-1.58-3.35-2.18-5.05-2.49-6.63-3.32-13.01-2.17-18.85.39-2.21,1.09-4.33,2.07-6.35l.85-1.73c.07-.07.13-.08.2-.15,3.78-6.41,10.34-10.96,18.82-13.66,1.71-.55,3.48-1.04,5.34-1.43,4.04-.86,8.42-1.38,13.06-1.5,1.5-.05,3.09-.06,4.64-.02,3.83.05,7.8.36,11.89.91,1.4.16,2.88.37,4.31.65,3.66.57,7.41,1.37,11.2,2.33,1.37.34,2.72.68,4.09,1.11,3.52.98,7.08,2.15,10.66,3.42,1.3.49,2.64,1.01,3.92,1.5,3.39,1.32,6.8,2.78,10.19,4.38l3.75,1.82c3.37,1.68,6.63,3.45,9.77,5.29,1.22.73,2.39,1.45,3.58,2.17,3.22,2.04,6.35,4.1,9.28,6.27,1.17.85,2.3,1.68,3.4,2.54,3.11,2.38,6.04,4.83,8.76,7.36,1.11.94,2.15,1.97,3.19,2.98,2.95,2.87,5.65,5.81,8.06,8.77.99,1.19,1.97,2.44,2.85,3.66,2.75,3.7,5.1,7.47,6.9,11.19.85,1.69,1.55,3.39,2.17,5.08,3.14,8.34,3.61,16.31.91,23.23Z"/>
          <path class="cls-4" d="m177.25,219.34l-3.92,8.06c2.72,2.52,5.65,4.97,8.76,7.36l3.94-8.11c-3.09-2.33-6.02-4.77-8.78-7.31Z"/>
          <path class="cls-4" d="m165.92,207.72l-3.84,7.91c2.41,2.98,5.11,5.91,8.08,8.79l3.89-8.03c-2.95-2.82-5.67-5.71-8.12-8.68Z"/>
        </g>
      </g>
    </g>
  </g>
</svg>